<?xml version="1.0" encoding="UTF-8"?>
<svg width="1240px" height="697px" viewBox="0 0 1240 697" version="1.1" xmlns="http://www.w3.org/2000/svg" xmlns:xlink="http://www.w3.org/1999/xlink">
    <title>3D电影</title>
    <defs>
        <polygon id="path-1" points="0.675492099 0.0894857143 759.763325 0.0894857143 759.763325 5.60160966 0.675492099 5.60160966"></polygon>
        <polygon id="path-3" points="44.3076072 0.0420120724 0.144853273 163.084563 254.710835 163.084563 298.599977 0.0420120724"></polygon>
        <path d="M21.7055982,0.0420120724 C8.2475395,16.0283058 0.236523702,36.084169 0.236523702,57.8562254 L0.236523702,57.8562254 C0.236523702,107.221111 41.4042438,147.753658 93.9293002,152.067598 L93.9293002,152.067598 L134.852799,0.0420120724 L21.7055982,0.0420120724 Z" id="path-5"></path>
        <linearGradient x1="60.003611%" y1="-23.7170917%" x2="81.7749184%" y2="101.003882%" id="linearGradient-7">
            <stop stop-color="#89969E" offset="0%"></stop>
            <stop stop-color="#050610" offset="100%"></stop>
        </linearGradient>
        <path d="M27.18693,0.659589537 C10.7520316,1.83662777 -1.1476298,19.5748249 0.608803612,40.2797746 L0.608803612,40.2797746 C2.36523702,60.9854245 17.1122799,76.8169738 33.5471783,75.6406358 L33.5471783,75.6406358 C49.9827765,74.464998 61.8810384,56.7261006 60.1253047,36.0211509 L60.1253047,36.0211509 C58.4304515,16.0402093 44.6386005,0.597971831 28.9062754,0.597971831 L28.9062754,0.597971831 C28.3359594,0.597971831 27.7614447,0.618977867 27.18693,0.659589537" id="path-8"></path>
        <linearGradient x1="84.6566692%" y1="84.1286477%" x2="-3.23262278%" y2="-2.4209045%" id="linearGradient-10">
            <stop stop-color="#89969E" offset="0%"></stop>
            <stop stop-color="#050610" offset="100%"></stop>
        </linearGradient>
        <polyline id="path-11" points="44.3076072 0.0420120724 0.144853273 163.084563 254.710835 163.084563 298.599977 0.0420120724"></polyline>
        <polyline id="path-13" points="44.3076072 0.0420120724 0.144853273 163.084563 254.710835 163.084563 298.599977 0.0420120724"></polyline>
        <polyline id="path-15" points="44.3076072 0.0420120724 0.144853273 163.084563 254.710835 163.084563 298.599977 0.0420120724"></polyline>
        <polyline id="path-17" points="44.3076072 0.0420120724 0.144853273 163.084563 254.710835 163.084563 298.599977 0.0420120724"></polyline>
        <polyline id="path-19" points="44.3076072 0.0420120724 0.144853273 163.084563 254.710835 163.084563 298.599977 0.0420120724"></polyline>
        <polyline id="path-21" points="44.3076072 0.0420120724 0.144853273 163.084563 254.710835 163.084563 298.599977 0.0420120724"></polyline>
        <polyline id="path-23" points="44.3076072 0.0420120724 0.144853273 163.084563 254.710835 163.084563 298.599977 0.0420120724"></polyline>
        <polyline id="path-25" points="44.3076072 0.0420120724 0.144853273 163.084563 254.710835 163.084563 298.599977 0.0420120724"></polyline>
    </defs>
    <g id="Page-1" stroke="none" stroke-width="1" fill="none" fill-rule="evenodd">
        <g id="30-Startup-Story-Illustrations" transform="translate(-231.000000, -9143.000000)">
            <g id="3D电影" transform="translate(237.000000, 9143.000000)">
                <g id="BG" transform="translate(0.000000, 0.461433)">
                    <path d="M312.545223,36.8999034 L268.880709,36.8999034 C266.360822,36.8999034 264.318181,34.8560161 264.318181,32.3345915 L264.318181,31.7856338 C264.318181,29.2649095 266.360822,27.2210221 268.880709,27.2210221 L312.545223,27.2210221 C315.065111,27.2210221 317.107752,29.2649095 317.107752,31.7856338 L317.107752,32.3345915 C317.107752,34.8560161 315.065111,36.8999034 312.545223,36.8999034" id="Fill-9" fill="#C3E4FF"></path>
                    <polygon id="Fill-11" fill="#C3E4FF" points="339.86581 0.238838632 388.647074 0.238838632 375.511612 43.4734624 353.001273 43.4734624"></polygon>
                    <polygon id="Fill-13" fill="#E1F4FF" points="105.189932 549.662149 364.352731 549.662149 364.352731 87.8311388 105.189932 87.8311388"></polygon>
                    <polygon id="Fill-15" fill="#E1F4FF" points="105.189932 582.769763 120.111219 582.769763 120.111219 87.8311388 105.189932 87.8311388"></polygon>
                    <polygon id="Fill-16" fill="#AAD5FF" points="120.111219 582.769763 135.032506 582.769763 135.032506 549.662149 120.111219 549.662149"></polygon>
                    <polygon id="Fill-17" fill="#AAD5FF" points="210.949616 582.769763 225.870903 582.769763 225.870903 549.662149 210.949616 549.662149"></polygon>
                    <polygon id="Fill-18" fill="#AAD5FF" points="364.352731 582.769763 379.274018 582.769763 379.274018 549.662149 364.352731 549.662149"></polygon>
                    <polygon id="Fill-19" fill="#BBE1FD" points="425.347156 582.769763 440.268442 582.769763 440.268442 549.662149 425.347156 549.662149"></polygon>
                    <polygon id="Fill-20" fill="#E1F4FF" points="349.431445 582.769763 364.352731 582.769763 364.352731 87.8311388 349.431445 87.8311388"></polygon>
                    <polygon id="Fill-21" fill="#AAD5FF" points="440.269142 583.226994 455.190429 583.226994 455.190429 549.662149 440.269142 549.662149"></polygon>
                    <polygon id="Fill-22" fill="#BBE1FD" points="196.02763 582.769763 210.948916 582.769763 210.948916 549.662149 196.02763 549.662149"></polygon>
                    <path d="M386.741799,59.6616241 C386.741799,77.0861312 376.674847,91.2119903 364.256652,91.2119903 C351.838458,91.2119903 341.771506,77.0861312 341.771506,59.6616241 C341.771506,42.2371171 351.838458,28.1112579 364.256652,28.1112579 C376.674847,28.1112579 386.741799,42.2371171 386.741799,59.6616241" id="Fill-23" fill="#C3E4FF"></path>
                    <polygon id="Fill-24" fill="#C3E4FF" points="120.110519 529.163058 349.430745 529.163058 349.430745 440.542793 120.110519 440.542793"></polygon>
                    <polygon id="Fill-25" fill="#AAD5FF" points="120.111219 529.163058 191.053634 529.163058 191.053634 440.542793 120.111219 440.542793"></polygon>
                    <polygon id="Fill-26" fill="#C3E4FF" points="120.110519 420.748105 349.430745 420.748105 349.430745 332.127839 120.110519 332.127839"></polygon>
                    <polygon id="Fill-27" fill="#AAD5FF" points="120.111219 420.748105 191.053634 420.748105 191.053634 332.127839 120.111219 332.127839"></polygon>
                    <polygon id="Fill-28" fill="#C3E4FF" points="120.110519 312.332451 349.430745 312.332451 349.430745 223.712185 120.110519 223.712185"></polygon>
                    <polygon id="Fill-29" fill="#AAD5FF" points="120.111219 312.332451 191.053634 312.332451 191.053634 223.712185 120.111219 223.712185"></polygon>
                    <polygon id="Fill-30" fill="#C3E4FF" points="120.110519 203.916797 349.430745 203.916797 349.430745 115.296531 120.110519 115.296531"></polygon>
                    <polygon id="Fill-31" fill="#AAD5FF" points="120.111219 203.916797 191.053634 203.916797 191.053634 115.296531 120.111219 115.296531"></polygon>
                    <polygon id="Fill-32" fill="#AAD5FF" points="364.352731 549.662149 455.190429 549.662149 455.190429 87.8311388 364.352731 87.8311388"></polygon>
                    <path d="M361.37946,94.4549022 L99.4623499,94.4549022 C91.8523047,94.4549022 85.6830948,88.2819284 85.6830948,80.66654 L85.6830948,79.8375018 L361.37946,79.8375018 L361.37946,94.4549022 Z" id="Fill-33" fill="#E1F4FF"></path>
                    <path d="M460.761752,94.4549022 L361.379111,94.4549022 L361.379111,79.8375018 L474.541707,79.8375018 L474.541707,80.66654 C474.541707,88.2819284 468.371797,94.4549022 460.761752,94.4549022" id="Fill-34" fill="#AAD5FF"></path>
                    <polygon id="Fill-35" fill="#C3E4FF" points="105.189932 100.85068 364.352731 100.85068 364.352731 94.4550423 105.189932 94.4550423"></polygon>
                    <polygon id="Fill-36" fill="#D6EEFF" points="171.492144 203.916797 185.574402 203.916797 185.574402 150.089529 171.492144 150.089529"></polygon>
                    <polygon id="Fill-37" fill="#C3E4FF" points="157.409187 203.916797 171.492144 203.916797 171.492144 150.089529 157.409187 150.089529"></polygon>
                    <polygon id="Fill-38" fill="#C3E4FF" points="185.574402 203.916797 199.656659 203.916797 199.656659 150.089529 185.574402 150.089529"></polygon>
                    <path d="M236.758831,203.917077 L199.656099,203.917077 L199.656099,150.089809 L236.758831,150.089809 C238.740591,150.089809 240.347273,151.697471 240.347273,153.681141 L240.347273,200.326445 C240.347273,202.309415 238.740591,203.917077 236.758831,203.917077" id="Fill-39" fill="#AAD5FF"></path>
                    <polygon id="Fill-40" fill="#C3E4FF" points="205.685914 163.261014 234.317178 163.261014 234.317178 157.931783 205.685914 157.931783"></polygon>
                    <polygon id="Fill-41" fill="#C3E4FF" points="212.066456 171.484177 227.938036 171.484177 227.938036 166.154946 212.066456 166.154946"></polygon>
                    <path d="M323.896752,281.440764 L323.896752,282.587693 C323.896752,287.852506 319.630928,292.120233 314.369325,292.120233 L231.828151,292.120233 L231.828151,271.907524 L314.369325,271.907524 C319.630928,271.907524 323.896752,276.175951 323.896752,281.440764" id="Fill-42" fill="#AAD5FF"></path>
                    <path d="M268.166659,281.682123 L268.166659,282.345914 C268.166659,285.39389 265.697156,287.8649 262.651038,287.8649 L231.942144,287.8649 C231.879165,287.8649 231.828081,287.813085 231.828081,287.750067 L231.828081,276.27797 C231.828081,276.214252 231.879165,276.163137 231.942144,276.163137 L262.651038,276.163137 C265.697156,276.163137 268.166659,278.634147 268.166659,281.682123" id="Fill-43" fill="#D6EEFF"></path>
                    <path d="M335.461501,292.120163 L335.461501,312.332171 L245.338273,312.332171 C240.07667,312.332171 235.811546,308.064444 235.811546,302.799631 L235.811546,301.652702 C235.811546,296.387889 240.07667,292.120163 245.338273,292.120163 L335.461501,292.120163 Z" id="Fill-44" fill="#AAD5FF"></path>
                    <path d="M335.461501,296.431862 L335.461501,308.020892 L298.458138,308.020892 C295.441411,308.020892 292.9957,305.573689 292.9957,302.555121 L292.9957,301.897632 C292.9957,298.879065 295.441411,296.431862 298.458138,296.431862 L335.461501,296.431862 Z" id="Fill-45" fill="#D6EEFF"></path>
                    <polygon id="Fill-46" fill="#C3E4FF" points="1103.88257 567.86808 1115.96558 567.86808 1115.96558 450.503855 1103.88257 450.503855"></polygon>
                    <polygon id="Fill-47" fill="#D6EEFF" points="934.904582 567.86808 943.93237 567.86808 943.93237 450.503855 934.904582 450.503855"></polygon>
                    <path d="M929.215488,456.788511 L1118.43305,456.788511 C1120.24127,456.788511 1121.70729,458.255433 1121.70729,460.064753 C1121.70729,461.874072 1120.24127,463.340294 1118.43305,463.340294 L929.215488,463.340294 C927.407271,463.340294 925.941244,461.874072 925.941244,460.064753 C925.941244,458.255433 927.407271,456.788511 929.215488,456.788511" id="Fill-48" fill="#D6EEFF"></path>
                    <path d="M929.215488,554.601298 L1118.43305,554.601298 C1120.24127,554.601298 1121.70729,556.06822 1121.70729,557.87754 C1121.70729,559.68686 1120.24127,561.153081 1118.43305,561.153081 L929.215488,561.153081 C927.407271,561.153081 925.941244,559.68686 925.941244,557.87754 C925.941244,556.06822 927.407271,554.601298 929.215488,554.601298" id="Fill-49" fill="#D6EEFF"></path>
                    <polygon id="Fill-50" fill="#D6EEFF" points="950.900023 567.86808 959.92781 567.86808 959.92781 450.503855 950.900023 450.503855"></polygon>
                    <polygon id="Fill-51" fill="#D6EEFF" points="966.894763 567.86808 975.922551 567.86808 975.922551 450.503855 966.894763 450.503855"></polygon>
                    <polygon id="Fill-52" fill="#D6EEFF" points="982.890203 567.86808 991.917991 567.86808 991.917991 450.503855 982.890203 450.503855"></polygon>
                    <polygon id="Fill-53" fill="#D6EEFF" points="998.884944 567.86808 1007.91273 567.86808 1007.91273 450.503855 998.884944 450.503855"></polygon>
                    <polygon id="Fill-54" fill="#D6EEFF" points="1014.87968 567.86808 1023.90747 567.86808 1023.90747 450.503855 1014.87968 450.503855"></polygon>
                    <polygon id="Fill-55" fill="#D6EEFF" points="1030.87512 567.86808 1039.90291 567.86808 1039.90291 450.503855 1030.87512 450.503855"></polygon>
                    <polygon id="Fill-56" fill="#D6EEFF" points="1046.86986 567.86808 1055.89765 567.86808 1055.89765 450.503855 1046.86986 450.503855"></polygon>
                    <polygon id="Fill-57" fill="#D6EEFF" points="1062.8653 567.86808 1071.89309 567.86808 1071.89309 450.503855 1062.8653 450.503855"></polygon>
                    <polygon id="Fill-58" fill="#D6EEFF" points="1078.86005 567.86808 1087.88783 567.86808 1087.88783 450.503855 1078.86005 450.503855"></polygon>
                    <polygon id="Fill-59" fill="#D6EEFF" points="1094.85549 567.86808 1103.88327 567.86808 1103.88327 450.503855 1094.85549 450.503855"></polygon>
                    <path d="M529.076165,260.503417 C529.076165,260.503417 526.307858,246.076472 516.851808,247.000737 C497.123772,248.930492 521.286278,312.353317 480.693072,316.426387 C440.099867,320.498757 435.884427,256.965301 435.884427,256.965301" id="Stroke-60" stroke="#C3E4FF" stroke-width="4.9"></path>
                    <line x1="527.616856" y1="218.270501" x2="527.616856" y2="589.167081" id="Stroke-61" stroke="#D6EEFF" stroke-width="10.5"></line>
                    <line x1="435.884217" y1="256.965161" x2="678.125074" y2="152.483237" id="Stroke-62" stroke="#D6EEFF" stroke-width="10.5"></line>
                    <path d="M574.125183,583.226784 L480.822181,583.226784 L480.822181,578.631363 C480.822181,572.686655 485.637327,567.86787 491.577711,567.86787 L563.368953,567.86787 C569.309336,567.86787 574.125183,572.686655 574.125183,578.631363 L574.125183,583.226784 Z" id="Fill-63" fill="#D6EEFF"></path>
                    <polygon id="Fill-64" fill="#AAD5FF" points="728.896916 205.776951 649.512424 223.069821 646.945652 200.875543 722.009738 184.523044"></polygon>
                    <path d="M693.411363,172.527337 L669.744298,177.682918 L662.987278,146.630395 C661.636713,140.420311 665.572944,134.289349 671.779242,132.93726 L672.970957,132.677486 C679.177255,131.325397 685.304479,135.264029 686.655743,141.474113 L693.411363,172.527337 Z" id="Fill-65" fill="#AAD5FF"></path>
                    <polygon id="Fill-66" fill="#AAD5FF" points="646.945442 200.875543 670.496345 169.973563 687.752079 166.214183 722.010228 184.523044"></polygon>
                    <line x1="1032.25865" y1="72.5220097" x2="1032.25865" y2="415.154967" id="Stroke-67" stroke="#E8F6FF" stroke-width="15.4"></line>
                    <line x1="1026.61329" y1="60.2369795" x2="1026.61329" y2="416.261986" id="Stroke-68" stroke="#D6EEFF" stroke-width="11.9"></line>
                    <line x1="1155.0451" y1="58.7056394" x2="1155.0451" y2="417.127434" id="Stroke-69" stroke="#AAD5FF" stroke-width="14"></line>
                    <line x1="913.291564" y1="61.6350012" x2="913.291564" y2="413.930736" id="Stroke-70" stroke="#E8F6FF" stroke-width="15.4"></line>
                    <path d="M898.543612,417.127364 L1150.71567,417.127364 L1150.71567,58.7055694 L898.543612,58.7055694 L898.543612,417.127364 Z M913.938646,401.722938 L1135.32063,401.722938 L1135.32063,74.109996 L913.938646,74.109996 L913.938646,401.722938 Z" id="Fill-71" fill="#D6EEFF"></path>
                    <path d="M966.699246,396.499087 C962.432023,403.672648 964.786063,412.949614 971.955251,417.21874 C979.124438,421.487867 988.395047,419.133791 992.661571,411.959529 C996.928095,404.785968 994.575454,395.509702 987.406266,391.240575 C980.237079,386.971449 970.96647,389.325525 966.699246,396.499087" id="Fill-72" fill="#AAD5FF"></path>
                    <path d="M971.776668,383.924873 C973.472921,388.904004 978.903869,391.557066 978.903869,391.557066 C978.903869,391.557066 981.584704,386.137509 979.889151,381.158378 C978.192898,376.179247 972.76195,373.526185 972.76195,373.526185 C972.76195,373.526185 970.081115,378.945742 971.776668,383.924873" id="Fill-73" fill="#AAD5FF"></path>
                    <polygon id="Fill-74" fill="#C3E4FF" points="849.585305 434.794141 1161.93585 434.794141 1161.93585 417.127364 849.585305 417.127364"></polygon>
                    <polygon id="Fill-75" fill="#AAD5FF" points="1089.30208 434.794141 1166.67262 434.794141 1166.67262 417.127364 1089.30208 417.127364"></polygon>
                    <line x1="917.689716" y1="184.000974" x2="1150.71525" y2="184.000974" id="Stroke-76" stroke="#D6EEFF" stroke-width="11.9"></line>
                    <polygon id="Fill-77" fill="#C3E4FF" points="917.689436 82.5789296 1139.03363 82.5789296 1139.03363 72.5219396 917.689436 72.5219396"></polygon>
                    <polygon id="Fill-78" fill="#C3E4FF" points="917.689436 100.370342 1139.03363 100.370342 1139.03363 90.3133521 917.689436 90.3133521"></polygon>
                    <polygon id="Fill-79" fill="#C3E4FF" points="917.689436 118.161054 1139.03363 118.161054 1139.03363 108.104064 917.689436 108.104064"></polygon>
                    <polygon id="Fill-80" fill="#C3E4FF" points="917.689436 135.952467 1139.03363 135.952467 1139.03363 125.895477 917.689436 125.895477"></polygon>
                    <polygon id="Fill-81" fill="#C3E4FF" points="917.689436 153.743179 1139.03363 153.743179 1139.03363 143.686189 917.689436 143.686189"></polygon>
                    <polygon id="Fill-82" fill="#AAD5FF" points="1056.76985 389.391414 1092.2743 389.391414 1088.52631 417.381957 1060.51854 417.381957"></polygon>
                    <polygon id="Fill-83" fill="#AAD5FF" points="912.284239 384.442812 953.744465 384.442812 949.366677 417.127504 916.662027 417.127504"></polygon>
                    <path d="M1077.09752,372.868626 C1078.82527,387.887242 1073.20748,400.72053 1073.20748,400.72053 C1073.20748,400.72053 1064.78849,389.20292 1063.06075,374.183604 C1061.33371,359.164988 1066.9515,346.331701 1066.9515,346.331701 C1066.9515,346.331701 1075.36978,357.84931 1077.09752,372.868626" id="Fill-84" fill="#AAD5FF"></path>
                    <path d="M1073.45303,384.919089 C1080.96441,398.411266 1080.74958,412.208031 1080.74958,412.208031 C1080.74958,412.208031 1068.35587,404.130509 1060.8431,390.639033 C1053.33172,377.147556 1053.54725,363.350091 1053.54725,363.350091 C1053.54725,363.350091 1065.94165,371.426912 1073.45303,384.919089" id="Fill-85" fill="#AAD5FF"></path>
                    <line x1="917.689716" y1="295.332966" x2="1150.71525" y2="295.332966" id="Stroke-86" stroke="#D6EEFF" stroke-width="11.9"></line>
                    <path d="M1084.0276,374.479999 C1082.10602,389.479709 1073.53938,400.908394 1073.53938,400.908394 C1073.53938,400.908394 1068.08744,388.016989 1070.00902,373.017279 C1071.9299,358.017569 1080.49654,346.588885 1080.49654,346.588885 C1080.49654,346.588885 1085.94848,359.480289 1084.0276,374.479999" id="Fill-87" fill="#AAD5FF"></path>
                    <path d="M1090.28113,385.321495 C1084.09583,399.351426 1072.52576,408.370018 1072.52576,408.370018 C1072.52576,408.370018 1070.98416,394.641173 1077.16946,380.611241 C1083.35477,366.58201 1094.92483,357.563418 1094.92483,357.563418 C1094.92483,357.563418 1096.46644,371.291563 1090.28113,385.321495" id="Fill-88" fill="#AAD5FF"></path>
                    <path d="M931.675684,398.446836 L931.675684,398.446836 C927.618393,398.446836 924.299363,395.125082 924.299363,391.065315 L924.299363,325.403247 C924.299363,321.34348 927.618393,318.022426 931.675684,318.022426 C935.732975,318.022426 939.052704,321.34348 939.052704,325.403247 L939.052704,391.065315 C939.052704,395.125082 935.732975,398.446836 931.675684,398.446836" id="Fill-89" fill="#AAD5FF"></path>
                    <path d="M912.712011,354.221008 L929.587767,354.221008 C931.771063,354.221008 933.557587,352.433394 933.557587,350.248766 L933.557587,350.049909 C933.557587,347.865281 931.771063,346.077668 929.587767,346.077668 L912.712011,346.077668 C910.528716,346.077668 908.742192,347.865281 908.742192,350.049909 L908.742192,350.248766 C908.742192,352.433394 910.528716,354.221008 912.712011,354.221008" id="Fill-90" fill="#AAD5FF"></path>
                    <path d="M913.559438,354.221008 L913.559438,354.221008 C910.910093,354.221008 908.742192,352.051784 908.742192,349.400823 L908.742192,335.481523 C908.742192,332.831261 910.910093,330.661338 913.559438,330.661338 C916.208783,330.661338 918.376684,332.831261 918.376684,335.481523 L918.376684,349.400823 C918.376684,352.051784 916.208783,354.221008 913.559438,354.221008" id="Fill-91" fill="#AAD5FF"></path>
                    <path d="M951.800982,375.974789 L935.976986,375.974789 C933.793691,375.974789 932.006467,374.187175 932.006467,372.002547 L932.006467,369.608559 C932.006467,367.423932 933.793691,365.635618 935.976986,365.635618 L951.800982,365.635618 C953.984977,365.635618 955.771501,367.423932 955.771501,369.608559 L955.771501,372.002547 C955.771501,374.187175 953.984977,375.974789 951.800982,375.974789" id="Fill-92" fill="#AAD5FF"></path>
                    <path d="M950.823747,375.974789 L951.492731,375.974789 C953.845372,375.974789 955.771151,374.048535 955.771151,371.693759 L955.771151,356.276028 C955.771151,353.921252 953.845372,351.994998 951.492731,351.994998 L950.823747,351.994998 C948.470406,351.994998 946.545327,353.921252 946.545327,356.276028 L946.545327,371.693759 C946.545327,374.048535 948.470406,375.974789 950.823747,375.974789" id="Fill-93" fill="#AAD5FF"></path>
                    <polygon id="Fill-94" fill="#C3E4FF" points="711.80507 448.248997 703.896921 448.248997 670.04814 584.545263 677.956289 584.545263"></polygon>
                    <line x1="743.846404" y1="515.757216" x2="762.570964" y2="449.633015" id="Stroke-95" stroke="#AAD5FF" stroke-width="4.9"></line>
                    <line x1="729.193481" y1="449.633365" x2="777.984542" y2="515.573413" id="Stroke-96" stroke="#AAD5FF" stroke-width="4.9"></line>
                    <g id="Group-99" transform="translate(658.785553, 449.529175)">
                        <line x1="70.4079278" y1="0.10418994" x2="0.43889842" y2="65.3069264" id="Fill-97" fill="#FFFFFF"></line>
                        <line x1="70.4079278" y1="0.10418994" x2="0.43889842" y2="65.3069264" id="Stroke-98" stroke="#AAD5FF" stroke-width="4.9"></line>
                    </g>
                    <polygon id="Fill-100" fill="#C3E4FF" points="758.445305 448.167634 766.239391 448.167634 799.601129 584.545123 791.807043 584.545123"></polygon>
                    <line x1="674.533203" y1="449.633365" x2="743.846544" y2="514.836101" id="Stroke-101" stroke="#AAD5FF" stroke-width="4.9"></line>
                    <polygon id="Fill-102" fill="#D6EEFF" points="678.414781 448.248997 670.506632 448.248997 636.657851 584.545263 644.566 584.545263"></polygon>
                    <polygon id="Fill-103" fill="#D6EEFF" points="725.109668 448.248997 733.017817 448.248997 766.866598 584.545263 758.958449 584.545263"></polygon>
                    <path d="M625.354957,433.059672 L625.354957,434.103672 C625.354957,442.811375 632.410781,449.865202 641.107576,449.865202 L764.492474,449.865202 C783.524235,449.865202 798.17051,432.380477 795.544257,412.790248 L781.614551,303.633081 C780.40744,294.592083 772.974438,287.86455 764.190172,287.86455 L727.622068,287.86455 C718.844099,287.86455 711.411097,294.592083 710.198388,303.633081 L696.267982,412.790248 C696.161616,413.569572 696.086041,414.349596 696.041955,415.122618 L695.966379,415.110014 C695.966379,415.110014 693.39051,433.059672 669.438637,433.059672 L625.354957,433.059672 Z" id="Fill-104" fill="#D6EEFF"></path>
                    <path d="M757.34372,432.437404 L676.684239,432.437404 C693.932275,429.281597 695.967919,415.110225 695.967919,415.110225 L696.043494,415.122828 C696.08758,414.349106 696.162456,413.569782 696.270221,412.789758 L710.199928,303.632591 C711.412637,294.592293 718.845639,287.86476 727.622907,287.86476 L762.935616,287.86476 C767.754962,287.86476 771.840944,288.826136 775.490966,292.133887 L788.395503,395.36245 C791.021756,414.952679 776.375481,432.437404 757.34372,432.437404" id="Fill-105" fill="#E8F6FF"></path>
                    <g id="Group-108" transform="translate(0.997743, 588.169014)">
                        <line x1="1225.57401" y1="0.99785674" x2="-0.000139954853" y2="0.99785674" id="Fill-106" fill="#E8F6FF"></line>
                        <line x1="1225.57401" y1="0.99785674" x2="-0.000139954853" y2="0.99785674" id="Stroke-107" stroke="#D6EEFF" stroke-width="14" stroke-linecap="round"></line>
                    </g>
                    <polygon id="Fill-1" fill="#E8F6FF" points="517.445847 249.508998 629.200497 249.508998 629.200497 104.498728 517.445847 104.498728"></polygon>
                    <polygon id="Fill-2" fill="#C3E4FF" points="538.075192 222.740306 608.570451 222.740306 608.570451 131.267421 538.075192 131.267421"></polygon>
                    <polygon id="Fill-3" fill="#C3E4FF" points="629.200497 249.508998 637.844808 249.508998 637.844808 104.498728 629.200497 104.498728"></polygon>
                    <polygon id="Fill-4" fill="#E8F6FF" points="714.074018 249.508998 825.828668 249.508998 825.828668 104.498728 714.074018 104.498728"></polygon>
                    <polygon id="Fill-5" fill="#C3E4FF" points="734.703363 222.740306 805.198623 222.740306 805.198623 131.267421 734.703363 131.267421"></polygon>
                    <polygon id="Fill-6" fill="#C3E4FF" points="825.828668 249.508998 834.47298 249.508998 834.47298 104.498728 825.828668 104.498728"></polygon>
                    <polygon id="Fill-7" fill="#C3E4FF" points="270.268781 85.1360644 311.157291 85.1360644 311.157291 29.1962897 270.268781 29.1962897"></polygon>
                    <polygon id="Fill-8" fill="#C3E4FF" points="270.268781 27.2210221 311.157291 27.2210221 311.157291 23.7641288 270.268781 23.7641288"></polygon>
                </g>
                <g id="Object" transform="translate(212.000000, 147.000000)">
                    <g id="Group-143" transform="translate(0.000000, 0.461433)">
                        <g id="Group-112" transform="translate(0.329571, 542.698189)">
                            <mask id="mask-2" fill="white">
                                <use xlink:href="#path-1"></use>
                            </mask>
                            <g id="Clip-111"></g>
                            <path d="M0.675492099,2.84547767 C0.675492099,4.36771509 170.603077,5.60216982 380.219059,5.60216982 C589.83574,5.60216982 759.763325,4.36771509 759.763325,2.84547767 C759.763325,1.32324024 589.83574,0.0894857143 380.219059,0.0894857143 C170.603077,0.0894857143 0.675492099,1.32324024 0.675492099,2.84547767" id="Fill-110" fill="#AFB3C1" mask="url(#mask-2)"></path>
                        </g>
                        <polygon id="Fill-113" fill="#5E5E6C" points="315.225192 545.826688 329.042235 545.826688 329.042235 269.032249 315.225192 269.032249"></polygon>
                        <polygon id="Fill-115" fill="#353543" points="301.408149 545.826688 315.225192 545.826688 315.225192 269.032249 301.408149 269.032249"></polygon>
                        <polygon id="Fill-116" fill="#5E5E6C" points="423.744086 545.826688 437.561129 545.826688 437.561129 269.032249 423.744086 269.032249"></polygon>
                        <polygon id="Fill-117" fill="#353543" points="409.927043 545.826688 423.744086 545.826688 423.744086 269.032249 409.927043 269.032249"></polygon>
                        <polygon id="Fill-118" fill="#5E5E6C" points="315.225192 385.325867 423.744086 385.325867 423.744086 269.032249 315.225192 269.032249"></polygon>
                        <polygon id="Fill-119" fill="#353543" points="264.400587 269.032249 627.062799 269.032249 627.062799 250.620459 264.400587 250.620459"></polygon>
                        <polygon id="Fill-120" fill="#5E5E6C" points="599.992731 269.032249 746.028623 269.032249 746.028623 250.620459 599.992731 250.620459"></polygon>
                        <polygon id="Fill-121" fill="#5E5E6C" points="694.911512 545.826688 709.685847 545.826688 709.685847 269.032249 694.911512 269.032249"></polygon>
                        <polygon id="Fill-122" fill="#353543" points="680.136479 545.826688 694.911512 545.826688 694.911512 269.032249 680.136479 269.032249"></polygon>
                        <polygon id="Fill-123" fill="#5E5E6C" points="578.424289 545.826688 593.198623 545.826688 593.198623 269.032249 578.424289 269.032249"></polygon>
                        <polygon id="Fill-124" fill="#5E5E6C" points="578.423589 409.569634 694.910813 409.569634 694.910813 269.112773 578.423589 269.112773"></polygon>
                        <polygon id="Fill-125" fill="#353543" points="467.116095 409.504515 563.649255 409.504515 563.649255 269.046954 467.116095 269.046954"></polygon>
                        <polygon id="Fill-126" fill="#353543" points="563.649255 545.826688 578.424289 545.826688 578.424289 269.032249 563.649255 269.032249"></polygon>
                        <polygon id="Fill-127" fill="#353543" points="563.649255 293.643622 709.685847 293.643622 709.685847 269.03295 563.649255 269.03295"></polygon>
                        <polygon id="Fill-128" fill="#353543" points="301.408149 293.643622 437.561129 293.643622 437.561129 269.03295 301.408149 269.03295"></polygon>
                        <polygon id="Fill-129" fill="#5E5E6C" points="482.709865 331.101586 548.055485 331.101586 548.055485 282.422897 482.709865 282.422897"></polygon>
                        <polygon id="Fill-130" fill="#5E5E6C" points="482.709865 392.804016 548.055485 392.804016 548.055485 344.125328 482.709865 344.125328"></polygon>
                        <path d="M525.617433,306.762101 C525.617433,312.527558 521.035312,317.202101 515.382535,317.202101 C509.730458,317.202101 505.147637,312.527558 505.147637,306.762101 C505.147637,300.996645 509.730458,296.322101 515.382535,296.322101 C521.035312,296.322101 525.617433,300.996645 525.617433,306.762101" id="Fill-131" fill="#353543"></path>
                        <path d="M525.617433,368.464602 C525.617433,374.230059 521.035312,378.904602 515.382535,378.904602 C509.730458,378.904602 505.147637,374.230059 505.147637,368.464602 C505.147637,362.699145 509.730458,358.024602 515.382535,358.024602 C521.035312,358.024602 525.617433,362.699145 525.617433,368.464602" id="Fill-132" fill="#353543"></path>
                        <polygon id="Fill-133" fill="#353543" points="568.142436 56.8452362 536.69458 172.931594 529.227989 200.498516 527.39528 207.276464 515.652368 250.618918 510.732955 250.618918 510.732955 250.674934 463.652142 250.674934 463.666138 250.618918 464.855054 246.242661 475.40765 207.276464 477.241758 200.498516 484.70905 172.931594 516.156205 56.8452362"></polygon>
                        <polygon id="Fill-134" fill="#81818E" points="560.151014 56.8452362 528.703158 172.931594 521.236567 200.498516 519.403158 207.276464 508.850562 246.242661 507.660946 250.618918 507.64695 250.674934 455.66072 250.674934 455.674716 250.618918 456.863632 246.242661 467.416228 207.276464 469.250336 200.498516 470.719862 195.092963 471.72054 191.388898 473.665912 184.204834 474.588914 180.801856 476.716928 172.931594 508.164783 56.8452362"></polygon>
                        <polygon id="Fill-135" fill="#81818E" points="400.259661 250.675074 502.741603 250.675074 502.741603 246.242801 400.259661 246.242801"></polygon>
                        <polygon id="Fill-136" fill="#353543" points="474.708646 250.675074 510.733025 250.675074 510.733025 246.242801 474.708646 246.242801"></polygon>
                        <path d="M397.019567,0.60423501 L664.4474,0.60423501 C667.096045,0.60423501 669.009228,3.26219879 668.284962,5.935567 L614.572388,204.23535 C614.083946,206.035567 612.517851,207.277724 610.734126,207.277724 L343.306293,207.277724 C340.658348,207.277724 338.744465,204.61976 339.468731,201.946392 L393.182005,3.64590905 C393.669747,1.84569175 395.236542,0.60423501 397.019567,0.60423501" id="Fill-137" fill="#5E5E6C"></path>
                        <path d="M392.874244,0.60423501 L655.965576,0.60423501 C659.241219,0.60423501 661.607856,3.89237988 660.712844,7.19872998 L608.184989,201.122255 C607.198307,204.764702 604.02763,207.277724 600.418894,207.277724 L341.482822,207.277724 C336.123251,207.277724 332.2514,201.898778 333.716727,196.489024 L385.108149,6.76040402 C386.094831,3.11725714 389.265508,0.60423501 392.874244,0.60423501" id="Fill-138" fill="#353543"></path>
                        <polygon id="Fill-139" fill="#FFFFFF" points="395.224366 9.88701247 649.516736 9.88701247 597.885991 200.496485 343.593621 200.496485"></polygon>
                        <path d="M615.824774,172.929914 L608.187438,201.122815 C607.200756,204.765262 604.030079,207.278284 600.421343,207.278284 L341.482472,207.278284 C336.122901,207.278284 332.25105,201.899338 333.716377,196.489584 L340.099018,172.929914 L615.824774,172.929914 Z" id="Fill-140" fill="#B6BBCE"></path>
                        <path d="M471.141686,194.111701 C469.691054,198.083942 466.074621,200.323886 463.064192,199.113238 C460.053763,197.90259 458.789971,193.700682 460.240603,189.728441 C461.691235,185.755499 465.307668,183.516256 468.318097,184.726904 C471.328526,185.936852 472.592318,190.138759 471.141686,194.111701" id="Fill-141" fill="#353543"></path>
                        <path d="M470.752122,181.639016 C473.127856,180.167894 475.663837,181.002534 475.663837,181.002534 C475.663837,181.002534 474.347562,184.222059 471.971828,185.693181 C469.596095,187.164304 467.060813,186.329664 467.060813,186.329664 C467.060813,186.329664 468.375688,183.110139 470.752122,181.639016" id="Fill-142" fill="#353543"></path>
                    </g>
                    <g id="Group-146" transform="translate(350.916479, 10.306503)">
                        <mask id="mask-4" fill="white">
                            <use xlink:href="#path-3"></use>
                        </mask>
                        <g id="Clip-145"></g>
                        <polygon id="Fill-144" fill="#060606" mask="url(#mask-4)" points="-7.3231377 163.084563 281.971941 163.084563 281.971941 -0.148442656 -7.3231377 -0.148442656"></polygon>
                    </g>
                    <g id="Group-149" transform="translate(514.663657, 10.306503)">
                        <mask id="mask-6" fill="white">
                            <use xlink:href="#path-5"></use>
                        </mask>
                        <g id="Clip-148"></g>
                        <path d="M21.7055982,0.0420120724 C8.2475395,16.0283058 0.236523702,36.084169 0.236523702,57.8562254 L0.236523702,57.8562254 C0.236523702,107.221111 41.4042438,147.753658 93.9293002,152.067598 L93.9293002,152.067598 L134.852799,0.0420120724 L21.7055982,0.0420120724 Z" id="Fill-147" fill="url(#linearGradient-7)" mask="url(#mask-6)"></path>
                    </g>
                    <g id="Group-152" transform="translate(518.862302, 38.314551)">
                        <mask id="mask-9" fill="white">
                            <use xlink:href="#path-8"></use>
                        </mask>
                        <g id="Clip-151"></g>
                        <path d="M27.18693,0.659589537 C10.7520316,1.83662777 -1.1476298,19.5748249 0.608803612,40.2797746 L0.608803612,40.2797746 C2.36523702,60.9854245 17.1122799,76.8169738 33.5471783,75.6406358 L33.5471783,75.6406358 C49.9827765,74.464998 61.8810384,56.7261006 60.1253047,36.0211509 L60.1253047,36.0211509 C58.4304515,16.0402093 44.6386005,0.597971831 28.9062754,0.597971831 L28.9062754,0.597971831 C28.3359594,0.597971831 27.7614447,0.618977867 27.18693,0.659589537" id="Fill-150" fill="url(#linearGradient-10)" mask="url(#mask-9)"></path>
                    </g>
                </g>
                <g id="Group-178" transform="translate(562.916479, 157.306503)">
                    <g id="Group-155">
                        <mask id="mask-12" fill="white">
                            <use xlink:href="#path-11"></use>
                        </mask>
                        <g id="Clip-154"></g>
                        <path d="M203.756632,65.7688491 C204.128912,70.1619115 201.993901,73.8974849 198.98837,74.1124467 C195.98144,74.3274085 193.242524,70.9412354 192.869544,66.548173 C192.496564,62.1551107 194.632275,58.4195372 197.638506,58.2045755 C200.644736,57.9896137 203.384352,61.3764869 203.756632,65.7688491" id="Fill-153" fill="#364148" mask="url(#mask-12)"></path>
                    </g>
                    <g id="Group-159">
                        <mask id="mask-14" fill="white">
                            <use xlink:href="#path-13"></use>
                        </mask>
                        <g id="Clip-157"></g>
                        <line x1="16.0585598" y1="90.5521907" x2="153.881901" y2="73.5338004" id="Fill-156" fill="#00FFFF" mask="url(#mask-14)"></line>
                        <line x1="16.0585598" y1="90.5521907" x2="153.881901" y2="73.5338004" id="Stroke-158" stroke="#00D4D1" stroke-width="5.6" mask="url(#mask-14)"></line>
                    </g>
                    <g id="Group-162">
                        <mask id="mask-16" fill="white">
                            <use xlink:href="#path-15"></use>
                        </mask>
                        <g id="Clip-161"></g>
                        <line x1="179.604203" y1="34.3770785" x2="153.881901" y2="73.5337304" id="Stroke-160" stroke="#00D4D1" stroke-width="2.8" mask="url(#mask-16)"></line>
                    </g>
                    <g id="Group-165">
                        <mask id="mask-18" fill="white">
                            <use xlink:href="#path-17"></use>
                        </mask>
                        <g id="Clip-164"></g>
                        <line x1="201.37642" y1="30.4705859" x2="153.882041" y2="73.5336604" id="Stroke-163" stroke="#00D4D1" stroke-width="2.8" mask="url(#mask-18)"></line>
                    </g>
                    <g id="Group-168">
                        <mask id="mask-20" fill="white">
                            <use xlink:href="#path-19"></use>
                        </mask>
                        <g id="Clip-167"></g>
                        <line x1="222.034806" y1="50.2817288" x2="153.881691" y2="73.5340105" id="Stroke-166" stroke="#00D4D1" stroke-width="2.8" mask="url(#mask-20)"></line>
                    </g>
                    <g id="Group-171">
                        <mask id="mask-22" fill="white">
                            <use xlink:href="#path-21"></use>
                        </mask>
                        <g id="Clip-170"></g>
                        <line x1="224.464912" y1="83.3931936" x2="153.882181" y2="73.5336604" id="Stroke-169" stroke="#00D4D1" stroke-width="2.8" mask="url(#mask-22)"></line>
                    </g>
                    <g id="Group-174">
                        <mask id="mask-24" fill="white">
                            <use xlink:href="#path-23"></use>
                        </mask>
                        <g id="Clip-173"></g>
                        <line x1="207.857589" y1="102.83232" x2="153.881901" y2="73.5338004" id="Stroke-172" stroke="#00D4D1" stroke-width="2.8" mask="url(#mask-24)"></line>
                    </g>
                    <g id="Group-177">
                        <mask id="mask-26" fill="white">
                            <use xlink:href="#path-25"></use>
                        </mask>
                        <g id="Clip-176"></g>
                        <line x1="185.984115" y1="99.2978439" x2="153.881971" y2="73.5339404" id="Stroke-175" stroke="#00D4D1" stroke-width="2.8" mask="url(#mask-26)"></line>
                    </g>
                </g>
                <g id="Man" transform="translate(295.000000, 147.461433)">
                    <path d="M324.974743,20.8225449 C324.974743,21.6319775 324.319054,22.2887662 323.510115,22.2887662 C322.701176,22.2887662 322.044788,21.6319775 322.044788,20.8225449 C322.044788,20.0131123 322.701176,19.3563235 323.510115,19.3563235 C324.319054,19.3563235 324.974743,20.0131123 324.974743,20.8225449" id="Fill-179" fill="#CCE9E8"></path>
                    <path d="M351.814935,33.0777465 C351.814935,34.4375372 350.71279,35.5403541 349.353129,35.5403541 C347.994167,35.5403541 346.892023,34.4375372 346.892023,33.0777465 C346.892023,31.7179557 347.994167,30.6151388 349.353129,30.6151388 C350.71279,30.6151388 351.814935,31.7179557 351.814935,33.0777465" id="Fill-181" fill="#CCE9E8"></path>
                    <path d="M326.96742,57.9400008 C326.96742,59.2997915 325.865975,60.4026085 324.505614,60.4026085 C323.146652,60.4026085 322.045208,59.2997915 322.045208,57.9400008 C322.045208,56.5802101 323.146652,55.4773932 324.505614,55.4773932 C325.865975,55.4773932 326.96742,56.5802101 326.96742,57.9400008" id="Fill-183" fill="#CCE9E8"></path>
                    <path d="M392.663558,45.7743549 C392.663558,47.4107252 391.337485,48.7369062 389.702813,48.7369062 C388.06744,48.7369062 386.741368,47.4107252 386.741368,45.7743549 C386.741368,44.1379847 388.06744,42.8118036 389.702813,42.8118036 C391.337485,42.8118036 392.663558,44.1379847 392.663558,45.7743549" id="Fill-185" fill="#CCE9E8"></path>
                    <path d="M391.614596,21.7791598 C391.614596,22.3071115 391.186334,22.7356346 390.658704,22.7356346 C390.130375,22.7356346 389.702813,22.3071115 389.702813,21.7791598 C389.702813,21.251208 390.130375,20.8226849 390.658704,20.8226849 C391.186334,20.8226849 391.614596,21.251208 391.614596,21.7791598" id="Fill-187" fill="#CCE9E8"></path>
                    <path d="M401.279528,133.701911 C401.279528,135.581952 399.75612,137.10559 397.877926,137.10559 C395.999731,137.10559 394.476323,135.581952 394.476323,133.701911 C394.476323,131.822571 395.999731,130.298934 397.877926,130.298934 C399.75612,130.298934 401.279528,131.822571 401.279528,133.701911" id="Fill-189" fill="#CCE9E8"></path>
                    <path d="M329.780233,128.891459 C329.780233,129.668682 329.151135,130.298864 328.373686,130.298864 C327.596937,130.298864 326.96714,129.668682 326.96714,128.891459 C326.96714,128.114236 327.596937,127.484055 328.373686,127.484055 C329.151135,127.484055 329.780233,128.114236 329.780233,128.891459" id="Fill-191" fill="#CCE9E8"></path>
                    <path d="M291.923354,152.991334 C291.923354,154.513572 290.690352,155.747326 289.169043,155.747326 C287.648433,155.747326 286.415431,154.513572 286.415431,152.991334 C286.415431,151.469097 287.648433,150.235342 289.169043,150.235342 C290.690352,150.235342 291.923354,151.469097 291.923354,152.991334" id="Fill-193" fill="#CCE9E8"></path>
                    <path d="M364.589874,110.420571 C364.589874,110.97093 364.143418,111.417658 363.593395,111.417658 C363.043372,111.417658 362.596916,110.97093 362.596916,110.420571 C362.596916,109.870213 363.043372,109.423485 363.593395,109.423485 C364.143418,109.423485 364.589874,109.870213 364.589874,110.420571" id="Fill-195" fill="#CCE9E8"></path>
                    <path d="M445.553896,159.605575 C445.553896,161.15372 444.299901,162.40848 442.7527,162.40848 C441.205499,162.40848 439.951503,161.15372 439.951503,159.605575 C439.951503,158.05743 441.205499,156.80267 442.7527,156.80267 C444.299901,156.80267 445.553896,158.05743 445.553896,159.605575" id="Fill-197" fill="#CCE9E8"></path>
                    <path d="M428.348616,110.186004 C428.348616,111.124974 427.587262,111.886793 426.648865,111.886793 C425.709767,111.886793 424.949813,111.124974 424.949813,110.186004 C424.949813,109.247034 425.709767,108.485215 426.648865,108.485215 C427.587262,108.485215 428.348616,109.247034 428.348616,110.186004" id="Fill-199" fill="#CCE9E8"></path>
                    <line x1="284.070767" y1="164.073839" x2="379.005643" y2="164.073839" id="Stroke-201" stroke="#B6BBCE" stroke-width="2.8"></line>
                    <line x1="392.484485" y1="164.073839" x2="512.695907" y2="164.073839" id="Stroke-203" stroke="#737986" stroke-width="2.8"></line>
                    <path d="M389.475596,165.332381 C388.615573,168.065966 386.129975,169.719141 383.922887,169.023841 C381.717199,168.328542 380.626251,165.549443 381.485573,162.815157 C382.346296,160.081572 384.831894,158.429097 387.038282,159.123697 C389.24467,159.818996 390.335619,162.598795 389.475596,165.332381" id="Fill-205" fill="#B6BBCE"></path>
                    <path d="M171.620962,256.752751 L157.787124,219.759721 L160.801052,207.918618 L195.18656,202.663608 C195.18656,202.663608 241.99516,300.464912 194.242564,289.587986" id="Fill-207" fill="#FF77CA"></path>
                    <line x1="84.7922709" y1="447.761689" x2="57.8824515" y2="365.794035" id="Stroke-209" stroke="#000000" stroke-width="4.9"></line>
                    <line x1="105.849738" y1="365.793685" x2="35.7309571" y2="447.533073" id="Stroke-211" stroke="#000000" stroke-width="4.9"></line>
                    <g id="Group-216" transform="translate(105.568849, 365.547284)">
                        <line x1="0.280889391" y1="0.246400805" x2="100.837052" y2="81.073427" id="Fill-213" fill="#FFFFFF"></line>
                        <line x1="0.280889391" y1="0.246400805" x2="100.837052" y2="81.073427" id="Stroke-215" stroke="#000000" stroke-width="4.9"></line>
                    </g>
                    <line x1="184.404158" y1="365.793685" x2="84.791991" y2="446.620711" id="Stroke-217" stroke="#000000" stroke-width="4.9"></line>
                    <polygon id="Fill-219" fill="#FFC100" points="178.826117 365.793685 190.190451 365.793685 238.835959 545.826618 227.471625 545.826618"></polygon>
                    <polygon id="Fill-221" fill="#F38C01" points="64.043684 365.793685 52.6793499 365.793685 4.03384199 545.826618 15.3981761 545.826618"></polygon>
                    <polygon id="Fill-223" fill="#F38C01" points="124.394386 365.793685 135.75872 365.793685 184.404228 545.826618 173.039894 545.826618"></polygon>
                    <polygon id="Fill-225" fill="#FFC100" points="111.718885 365.793685 100.354551 365.793685 51.7090429 545.826618 63.073377 545.826618"></polygon>
                    <path d="M82.5797946,441.286158 C81.943,443.577216 82.4860248,445.790552 83.7932032,446.228878 C85.1003815,446.667204 86.6762731,445.164572 87.3130677,442.873514 C87.9505621,440.581755 87.4068375,438.36912 86.1003589,437.930794 C84.7931806,437.492468 83.2172889,438.995099 82.5797946,441.286158" id="Fill-227" fill="#121216"></path>
                    <path d="M40.7194379,366.348244 L88.5455102,366.348244 C113.041808,366.348244 131.888129,344.686819 128.514517,320.409443 L110.587,191.405773 C109.031402,180.208155 99.4626885,171.87296 88.164833,171.87296 L41.1008149,171.87296 C29.8022596,171.87296 20.234246,180.208155 18.6779481,191.405773 L0.751130926,320.409443 C-2.62318059,344.686819 16.22314,366.348244 40.7194379,366.348244" id="Fill-229" fill="#A6A6B1"></path>
                    <path d="M53.1934041,366.348244 L202.211734,366.348244 C211.914104,366.348244 219.779567,358.477982 219.779567,348.769693 L219.779567,347.211045 L53.1934041,347.211045 L53.1934041,366.348244 Z" id="Fill-231" fill="#A6A6B1"></path>
                    <path d="M102.226797,371.088256 C101.589302,373.379314 102.133027,375.59265 103.439506,376.031676 C104.747384,376.470002 106.323275,374.967371 106.96007,372.676312 C107.596865,370.383854 107.05384,368.171218 105.746661,367.732892 C104.440183,367.294566 102.863591,368.797198 102.226797,371.088256" id="Fill-233" fill="#121216"></path>
                    <path d="M269.340659,501.103437 L269.12233,521.218817 C269.12233,521.218817 311.287928,528.322358 325.582217,545.543807 L241.574316,545.543807 L245.093481,488.039082 L269.340659,501.103437 Z" id="Fill-235" fill="#0B096F"></path>
                    <path d="M134.825431,496.496043 L134.593806,520.422618 C134.593806,520.422618 153.401639,523.049773 161.057169,545.352582 L100.167011,545.352582 L106.256447,519.099938 L108.639878,495.167761 L134.825431,496.496043 Z" id="Fill-237" fill="#0B096F"></path>
                    <polygon id="Fill-239" fill="#EF3C86" points="245.093201 493.309637 243.139431 519.969798 269.12205 521.218257 269.340379 501.103577"></polygon>
                    <polygon id="Fill-241" fill="#EF3C86" points="109.147354 488.242701 106.256587 519.099868 134.593946 520.422548 134.825571 496.495973"></polygon>
                    <path d="M253.244102,289.522027 L106.779248,289.522027 L99.7605124,350.914269 L239.848323,350.914269 L237.77979,509.596667 L282.702499,509.596667 L303.919655,346.832096 C307.719429,316.39785 283.955095,289.522027 253.244102,289.522027" id="Fill-243" fill="#121216"></path>
                    <path d="M154.918959,289.522027 L35.731307,289.522027 C35.731307,289.522027 9.24205192,134.818172 107.64081,134.818172 C180.373948,134.818172 199.293745,207.85686 199.293745,207.85686 L161.387673,219.889818 L154.918959,289.522027 Z" id="Fill-245" fill="#FFC100"></path>
                    <path d="M195.074666,289.714513 C174.993944,289.521957 147.986856,227.037402 147.986856,227.037402 L165.774418,214.178907 L194.170558,252.602448" id="Fill-247" fill="#FF77CA"></path>
                    <path d="M152.00202,239.167688 C151.244865,243.084613 147.457686,245.646649 143.543149,244.889032 C139.627912,244.131414 137.067438,240.341925 137.824594,236.424299 C138.581749,232.507374 142.368928,229.945338 146.284165,230.702955 C150.199402,231.460573 152.759176,235.250062 152.00202,239.167688" id="Fill-249" fill="#FFE184"></path>
                    <path d="M146.730481,230.78922 C146.442874,232.276447 145.005537,233.249027 143.519217,232.961244 C142.033596,232.673462 141.061609,231.235248 141.349217,229.748021 C141.636124,228.260794 143.07346,227.288214 144.559781,227.575997 C146.046102,227.863779 147.018088,229.301993 146.730481,230.78922" id="Fill-251" fill="#FFE184"></path>
                    <path d="M139.9736,234.85914 C139.685993,236.346367 138.248657,237.318946 136.762336,237.031164 C135.276716,236.743381 134.304729,235.305168 134.592336,233.81794 C134.879244,232.330713 136.31728,231.358134 137.802901,231.645916 C139.289221,231.933699 140.261208,233.371912 139.9736,234.85914" id="Fill-253" fill="#FFE184"></path>
                    <path d="M178.422278,223.58688 C179.696567,226.755291 179.084264,237.231701 179.084264,237.231701 C179.084264,237.231701 178.173158,241.131822 176.527289,245.313424 C174.88002,249.495726 173.76458,251.954832 173.627424,259.977037 C173.532255,265.566744 167.220291,259.152901 166.498124,255.449536 C165.754264,251.630639 170.046679,241.47212 165.630404,240.813231 C161.214129,240.154341 154.843384,248.843138 150.535573,258.327363 C149.859591,259.817392 148.012887,260.065263 146.928937,259.827194 C145.170404,259.441384 146.274648,252.405062 146.274648,252.405062 C146.274648,252.405062 144.446138,253.799162 142.694603,251.334454 C142.074603,250.462703 141.873068,244.960522 141.873068,244.960522 C141.873068,244.960522 141.116612,241.759202 141.33984,238.982204 C141.733113,234.078695 144.205415,226.281255 145.656747,224.533553 C149.173813,220.298736 155.63063,213.409456 160.416386,210.866325 C165.152458,208.349802 176.364941,218.471911 178.422278,223.58688" id="Fill-255" fill="#FF77CA"></path>
                    <path d="M190.258959,242.890237 C189.971352,244.377465 188.534016,245.350044 187.047695,245.062262 C185.562074,244.774479 184.590088,243.336266 184.877695,241.849038 C185.164603,240.361811 186.601939,239.389231 188.08826,239.677014 C189.57458,239.964797 190.546567,241.40301 190.258959,242.890237" id="Fill-257" fill="#FFE184"></path>
                    <path d="M183.063041,248.856302 C182.305885,252.773928 178.518707,255.335264 174.60347,254.577646 C170.688233,253.820028 168.128458,250.030539 168.885614,246.113614 C169.64207,242.195988 173.429948,239.634652 177.345185,240.391569 C181.259722,241.149187 183.820196,244.938676 183.063041,248.856302" id="Fill-259" fill="#FFD161"></path>
                    <path d="M187.420255,245.454094 C186.663099,249.37172 182.875921,251.933056 178.960684,251.175438 C175.045447,250.418521 172.485673,246.628332 173.242828,242.711406 C173.999984,238.79378 177.787163,236.232444 181.7024,236.989362 C185.616937,237.746979 188.177411,241.536468 187.420255,245.454094" id="Fill-261" fill="#FFD161"></path>
                    <path d="M86.0650203,137.646705 C90.0467359,149.333063 110.656488,155.335888 125.532289,153.70582 C141.357684,151.971421 137.473937,140.936951 129.528,137.076741 C114.919512,133.493111 122.296533,133.533023 107.496307,134.071478 C102.017774,134.271035 91.3861038,136.424854 86.0650203,137.646705" id="Fill-263" fill="#FF77CA"></path>
                    <path d="M142.056898,36.2077859 C144.707643,36.6454117 171.308862,51.1255726 146.998005,73.1875123 L142.056898,36.2077859 Z" id="Fill-265" fill="#0B096F"></path>
                    <path d="M80.1719413,92.6211767 L81.7289391,98.7017239 C100.781693,87.8668105 86.6434537,72.8671002 86.6434537,72.8671002 C115.439865,72.3657561 133.913905,66.5456837 145.436388,58.5108748 C145.162777,58.0361384 144.883567,57.564903 144.59526,57.1048708 L142.776546,56.1925087 L109.716411,39.5746334 L71.0293905,56.8815066 L76.7024605,79.0498769 L80.1719413,92.6211767 Z" id="Fill-267" fill="#FF77CA"></path>
                    <path d="M77.0414312,95.2605851 C79.8076388,96.7961264 81.4696027,98.440899 81.7040271,98.6684644 C80.7754266,97.5159332 79.1078646,96.3101867 77.0414312,95.2605851" id="Fill-269" fill="#FF77CA"></path>
                    <path d="M89.8830587,120.82003 L90.6626072,137.294364 L126.512043,140.300328 L126.782156,123.768577 C126.782156,123.768577 149.112652,124.291627 156.502269,119.962984 C156.502269,119.962984 155.161501,89.5826535 154.151027,84.2870318 C152.544345,75.8096958 149.976874,66.6853738 145.897889,59.3143557 C145.747438,59.0426777 145.589989,58.7738004 145.436038,58.5112249 C133.913555,66.5460338 115.440214,72.3661062 86.6431038,72.8674503 C86.6431038,72.8674503 100.782043,87.8664604 81.7292889,98.7013738 C81.7292889,98.7013738 81.716693,98.6922712 81.7040971,98.6684644 C81.4696727,98.440899 79.8077088,96.7961264 77.0415011,95.2605851 C76.4215011,94.953897 75.7735102,94.6535107 75.0940293,94.3776314 C73.2032393,93.6032089 71.1011174,92.9779292 68.9745034,92.625728 C68.9626072,92.6173256 68.9472122,92.6173256 68.9325169,92.6180258 C66.2565801,92.1804 63.5484537,92.1586938 61.1657223,92.8126817 L61.1573251,92.8105811 C57.7711174,93.7341465 55.0433973,95.9929956 54.0378217,100.269825 C54.0322235,100.303434 54.0273251,100.337044 54.0161287,100.373454 C49.8916591,118.551378 89.8830587,120.82003 89.8830587,120.82003" id="Fill-271" fill="#FF77CA"></path>
                    <path d="M61.1571151,92.810231 L61.1662122,92.8130318 C63.5482438,92.1583437 68.2087404,91.4483396 77.0412912,95.2609352 C79.9460542,96.5142954 81.4694628,98.4412491 81.7038871,98.6688145 C81.7164831,98.6926213 81.729079,98.7017239 81.729079,98.7017239 C100.781833,87.8668105 86.6428939,72.8671002 86.6428939,72.8671002 C115.440005,72.3657561 133.914045,66.5456837 145.436528,58.5108748 C173.901246,38.6692732 159.941449,5.28227928 154.35865,4.99659718 C147.006822,4.62969175 142.540163,27.4296435 142.540163,27.4296435 C142.540163,27.4296435 126.658786,-5.77529819 104.339485,2.18248853 C88.6715395,7.77429537 91.5895982,33.538899 91.5895982,33.538899 C91.5895982,33.538899 67.1905688,28.7054101 53.1146095,60.112235 C40.8685598,87.4417883 56.8066185,92.0652169 61.1571151,92.810231" id="Fill-273" fill="#0B096F"></path>
                    <polyline id="Stroke-275" stroke="#0B096F" stroke-width="6.3" points="51.7624357 39.8144523 60.1709233 54.3485288 55.3585756 59.2401344 40.6458217 52.167402"></polyline>
                    <polygon id="Fill-277" fill="#EF3C86" points="126.782156 123.768857 110.58728 122.995835 126.587619 134.738909"></polygon>
                    <path d="M152.147923,84.0533046 C153.635643,86.0292724 153.240971,88.8377795 151.266208,90.325707 C149.290745,91.8143348 146.48465,91.4194213 144.99693,89.4434535 C143.50991,87.4674857 143.904582,84.6589787 145.879345,83.1703509 C147.854108,81.6824233 150.660903,82.0773368 152.147923,84.0533046" id="Fill-279" fill="#0B096F"></path>
                    <path d="M155.96967,231.077773 C155.682063,232.565 154.244727,233.53688 152.758406,233.249797 C151.272786,232.962014 150.300799,231.523801 150.588406,230.036574 C150.875314,228.549346 152.31265,227.576767 153.798971,227.86455 C155.285291,228.152332 156.257278,229.590546 155.96967,231.077773" id="Fill-281" fill="#FFE184"></path>
                    <path d="M161.866528,232.218681 C161.578921,233.705908 160.141585,234.677788 158.655264,234.390705 C157.169643,234.102922 156.197657,232.664709 156.485264,231.177482 C156.772172,229.690254 158.210208,228.717675 159.695828,229.005458 C161.182149,229.29324 162.154135,230.731454 161.866528,232.218681" id="Fill-283" fill="#FFE184"></path>
                    <path d="M163.276993,239.368015 C162.519837,243.285641 158.732659,245.846977 154.817422,245.089359 C150.902185,244.331742 148.342411,240.542253 149.099567,236.625327 C149.856722,232.707701 153.643901,230.145665 157.559138,230.903283 C161.473675,231.660901 164.034149,235.45039 163.276993,239.368015" id="Fill-285" fill="#FFD161"></path>
                    <path d="M152.648122,244.91907 C151.890966,248.836696 148.103788,251.398032 144.188551,250.640414 C140.273314,249.882797 137.71354,246.093308 138.470695,242.176382 C139.227851,238.258757 143.015029,235.69672 146.930266,236.454338 C150.844804,237.211956 153.405278,241.001445 152.648122,244.91907" id="Fill-287" fill="#FFD161"></path>
                    <path d="M178.399325,234.935392 C178.111718,236.422619 176.674381,237.395198 175.188061,237.107416 C173.70174,236.819633 172.729754,235.38142 173.017361,233.894192 C173.304968,232.407665 174.742305,231.435086 176.228625,231.722868 C177.714946,232.009951 178.686932,233.448164 178.399325,234.935392" id="Fill-289" fill="#FFE184"></path>
                    <path d="M170.518327,230.391926 C170.23072,231.879153 168.793384,232.851733 167.307763,232.56395 C165.821442,232.276167 164.849456,230.837954 165.137063,229.350727 C165.423971,227.863499 166.862007,226.89092 168.347628,227.178703 C169.833948,227.466485 170.805935,228.904699 170.518327,230.391926" id="Fill-291" fill="#FFE184"></path>
                    <path d="M132.893214,85.2338439 C134.380235,87.2098117 133.985562,90.0183187 132.010799,91.5062463 C130.036036,92.994874 127.229242,92.5999606 125.742221,90.6239928 C124.254501,88.6480249 124.649874,85.8395179 126.624637,84.3508901 C128.5987,82.8629626 131.405494,83.2578761 132.893214,85.2338439" id="Fill-293" fill="#0B096F"></path>
                    <path d="M33.9711648,436.663779 C33.3336704,438.954838 33.1356343,440.919602 33.5275079,441.05124 C33.9200813,441.182878 34.7542122,439.431675 35.3917065,437.140616 C36.0285011,434.848858 36.227237,432.884794 35.8346637,432.753156 C35.4427901,432.621518 34.6079594,434.372721 33.9711648,436.663779" id="Fill-295" fill="#121216"></path>
                    <path d="M171.612774,248.339063 C170.855619,252.256689 167.06844,254.818025 163.153203,254.060407 C159.237966,253.30279 156.678192,249.513301 157.435348,245.596375 C158.192503,241.678749 161.979682,239.117413 165.894919,239.874331 C169.809456,240.631948 172.36993,244.421437 171.612774,248.339063" id="Fill-297" fill="#FFD161"></path>
                    <path d="M52.0832822,371.515659 C51.4464876,373.806717 51.2477517,375.770781 51.6403251,375.90312 C52.0321986,376.034057 52.8670293,374.282854 53.5038239,371.991796 C54.1406185,369.700037 54.3393544,367.735973 53.9474808,367.604335 C53.5549074,367.473397 52.7207765,369.2239 52.0832822,371.515659" id="Fill-299" fill="#121216"></path>
                    <path d="M189.842454,371.10128 C190.428165,373.409143 191.21681,375.184153 191.605185,375.065119 C191.99286,374.946785 191.832612,372.97992 191.2476,370.671356 C190.661889,368.363493 189.872544,366.588483 189.484869,366.707517 C189.097194,366.826551 189.257442,368.793416 189.842454,371.10128" id="Fill-301" fill="#121216"></path>
                    <path d="M175.59477,240.053232 C174.837614,243.970858 171.050436,246.532194 167.135199,245.774576 C163.219962,245.016959 160.660187,241.22747 161.417343,237.310544 C162.174499,233.392918 165.961677,230.830882 169.876914,231.5885 C173.791451,232.346118 176.351926,236.135606 175.59477,240.053232" id="Fill-303" fill="#FFD161"></path>
                    <path d="M207.558569,439.927487 C208.14358,442.236051 208.932926,444.010361 209.3206,443.892027 C209.708975,443.772992 209.548727,441.806127 208.963016,439.498264 C208.378005,437.189701 207.588659,435.415391 207.200984,435.533725 C206.813309,435.652759 206.973558,437.619624 207.558569,439.927487" id="Fill-305" fill="#121216"></path>
                    <polygon id="Fill-307" fill="#285FD7" points="140.047077 88.2199219 149.527619 105.293628 140.747551 106.455962"></polygon>
                    <path d="M78.9723183,178.982173 C87.8650497,191.461859 92.3848916,212.322954 92.3848916,212.322954 L80.9988646,217.187252" id="Stroke-309" stroke="#FA8400" stroke-width="3.5"></path>
                    <polygon id="Fill-311" fill="#F52121" points="186.732727 247.821755 172.194916 286.187879 166.605819 300.935517 135.442072 294.906085 135.749973 279.136153 136.553314 238.113465"></polygon>
                    <polygon id="Fill-313" fill="#EAD0D0" points="150.553628 240.821773 139.934553 295.774964 135.442002 294.906014 135.749903 279.136083 143.420828 239.441676"></polygon>
                    <polygon id="Fill-315" fill="#EAD0D0" points="154.590625 298.611619 147.457126 297.231523 158.076201 242.276931 165.2104 243.657028"></polygon>
                    <polygon id="Fill-317" fill="#EAD0D0" points="179.865562 246.493123 172.195336 286.187529 166.60554 300.935867 162.112989 300.066918 172.732763 245.113026"></polygon>
                    <path d="M123.73121,275.698515 L141.693016,264.388865 C141.693016,264.388865 145.650239,262.746893 150.442293,261.497734 C155.233648,260.249276 158.1713,259.627497 164.891233,254.922845 C169.573422,251.644503 169.453761,260.314394 166.993354,263.085791 C164.456673,265.944012 152.578704,268.75392 155.647914,272.524503 C158.717824,276.294386 171.085634,275.954789 182.420578,273.560801 C184.201503,273.184793 185.915251,274.447956 186.606628,275.419135 C187.726966,276.993887 181.028027,280.368157 181.028027,280.368157 C181.028027,280.368157 183.672474,280.930419 183.074867,283.746628 C182.863535,284.743014 178.496944,288.195706 178.496944,288.195706 C178.496944,288.195706 176.478095,290.693324 174.008591,292.187553 C169.648298,294.826612 161.202722,297.612012 158.57577,297.550394 C152.211323,297.401252 141.254957,296.59602 135.245995,294.463207 C129.300014,292.352101 131.374144,283.560374 123.73121,275.698515" id="Fill-319" fill="#FF77CA"></path>
                    <path d="M129.317438,106.72638 C129.317438,106.72638 129.661727,112.99248 136.429944,112.552754" id="Stroke-321" stroke="#010098" stroke-width="2.8"></path>
                    <path d="M35.731167,289.522027 L132.153063,289.522027 C152.072138,289.522027 167.645614,306.523613 165.691844,326.136949 L146.70277,509.596667 L102.535117,509.596667 L110.010106,350.914269 L78.6875102,350.914269 C54.9630632,350.914269 35.731167,331.884901 35.731167,308.412056 L35.731167,289.522027 Z" id="Fill-323" fill="#2B2B3B"></path>
                    <path d="M80.9711535,217.187252 L43.3351941,229.279026 C43.3351941,229.279026 49.4701151,270.793956 63.4579029,283.443791 C77.4456907,296.094326 133.112734,289.42631 133.112734,289.42631 L141.434449,267.312555 L87.2376321,259.013771 L80.9711535,217.187252 Z" id="Fill-325" fill="#FF77CA"></path>
                    <polygon id="Fill-327" fill="#EF3C86" points="80.9711535 217.187252 43.3351941 229.279026 46.4009052 244.993642"></polygon>
                    <polygon id="Fill-329" fill="#353543" points="317.259661 250.675074 427.733025 250.675074 427.733025 250.619058 317.259661 250.619058"></polygon>
                </g>
            </g>
        </g>
    </g>
</svg>