<?xml version="1.0" standalone="no"?><!DOCTYPE svg PUBLIC "-//W3C//DTD SVG 1.1//EN" "http://www.w3.org/Graphics/SVG/1.1/DTD/svg11.dtd"><svg t="1612790396154" class="icon" viewBox="0 0 1028 1024" version="1.1" xmlns="http://www.w3.org/2000/svg" p-id="3581" xmlns:xlink="http://www.w3.org/1999/xlink" width="200.78125" height="200"><defs><style type="text/css"></style></defs><path d="M429.3 213.3l85.8-148.7 85.8 148.7z" fill="#38C9E5" p-id="3582"></path><path d="M0 959.4l85.9-148.7 85.8 148.7z" fill="#2ED7FF" p-id="3583"></path><path d="M856.9 959.4l85.8-148.7 85.7 148.7z" fill="#00EACA" p-id="3584"></path><path d="M607.6 903.9H425.1l16.6-17.5h149.3z" fill="#C7C9FD" p-id="3585"></path><path d="M727.4 516.8v257.8h-422V516.8h422m30-30h-482v317.8h482V486.8z" fill="#545EFB" p-id="3586"></path><path d="M333.4 550h365.9v191.5H333.4zM424.4 904H608.2v54.5H424.4z" fill="#545EFB" p-id="3587"></path><path d="M743.6 465.8H285l-12.1 21v0.8H756.2z" fill="#C7C9FD" p-id="3588"></path><path d="M500 789.6h30v129.3h-30z" fill="#545EFB" p-id="3589"></path></svg>