<?xml version="1.0" encoding="UTF-8" ?>
<!DOCTYPE svg PUBLIC "-//W3C//DTD SVG 1.1//EN" "http://www.w3.org/Graphics/SVG/1.1/DTD/svg11.dtd">
<svg width="792pt" height="130pt" viewBox="0 0 792 130" version="1.1" xmlns="http://www.w3.org/2000/svg">
<path fill="#ffffff" d=" M 0.00 0.00 L 33.14 0.00 C 32.27 19.53 36.07 38.87 36.03 58.38 C 34.15 59.82 31.99 60.89 30.30 62.56 C 29.75 64.34 30.39 66.18 30.62 67.96 C 31.47 67.65 33.18 67.04 34.03 66.74 C 35.28 67.98 36.80 69.08 37.48 70.77 C 41.07 80.14 37.65 91.06 42.59 100.03 C 43.40 100.03 45.02 100.04 45.83 100.04 C 46.85 98.51 48.52 97.13 48.28 95.11 C 48.51 85.44 47.75 75.78 48.00 66.11 C 60.80 59.68 73.48 53.00 86.37 46.78 C 88.18 60.85 87.96 75.07 89.27 89.19 C 89.98 93.22 90.44 97.77 93.35 100.89 C 96.05 103.05 99.45 99.92 100.90 97.68 C 100.64 95.40 99.84 93.22 99.45 90.95 C 95.96 64.46 95.26 37.70 95.29 11.01 C 95.30 7.34 95.19 3.66 95.57 0.00 L 792.00 0.00 L 792.00 130.00 L 0.00 130.00 L 0.00 0.00 Z" />
<path fill="#000000" d=" M 33.14 0.00 L 39.78 0.00 C 41.38 13.74 42.82 27.51 44.34 41.26 C 44.92 45.70 45.06 50.21 46.16 54.57 C 51.55 53.44 56.49 50.91 61.37 48.47 C 69.85 44.08 78.28 39.59 86.71 35.09 C 86.67 23.39 87.14 11.70 87.13 0.00 L 95.57 0.00 C 95.19 3.66 95.30 7.34 95.29 11.01 C 95.26 37.70 95.96 64.46 99.45 90.95 C 99.84 93.22 100.64 95.40 100.90 97.68 C 99.45 99.92 96.05 103.05 93.35 100.89 C 90.44 97.77 89.98 93.22 89.27 89.19 C 87.96 75.07 88.18 60.85 86.37 46.78 C 73.48 53.00 60.80 59.68 48.00 66.11 C 47.75 75.78 48.51 85.44 48.28 95.11 C 48.52 97.13 46.85 98.51 45.83 100.04 C 45.02 100.04 43.40 100.03 42.59 100.03 C 37.65 91.06 41.07 80.14 37.48 70.77 C 36.80 69.08 35.28 67.98 34.03 66.74 C 33.18 67.04 31.47 67.65 30.62 67.96 C 30.39 66.18 29.75 64.34 30.30 62.56 C 31.99 60.89 34.15 59.82 36.03 58.38 C 36.07 38.87 32.27 19.53 33.14 0.00 Z" />
<path fill="#ffffff" d=" M 39.78 0.00 L 87.13 0.00 C 87.14 11.70 86.67 23.39 86.71 35.09 C 78.28 39.59 69.85 44.08 61.37 48.47 C 56.49 50.91 51.55 53.44 46.16 54.57 C 45.06 50.21 44.92 45.70 44.34 41.26 C 42.82 27.51 41.38 13.74 39.78 0.00 Z" />
<path fill="#000000" d=" M 105.97 8.05 C 111.91 3.51 119.75 2.82 126.94 1.98 C 138.86 0.19 150.95 3.00 162.11 7.13 C 176.15 12.65 189.48 21.48 197.76 34.35 C 203.81 43.61 206.64 55.00 205.20 66.00 C 204.27 77.35 198.27 88.31 188.85 94.81 C 178.21 102.63 164.25 104.43 151.48 102.37 C 146.17 101.29 140.48 99.18 137.21 94.61 C 136.05 92.19 135.64 87.38 138.99 86.76 C 146.47 87.93 153.39 91.43 160.88 92.64 C 170.64 92.36 180.16 87.91 186.78 80.76 C 193.08 74.52 197.14 65.56 195.91 56.58 C 194.57 46.96 189.16 38.37 182.51 31.50 C 174.34 23.76 164.60 17.30 153.61 14.46 C 153.55 37.68 162.53 60.32 159.39 83.63 C 158.85 86.55 154.99 87.99 152.50 86.75 C 149.90 83.19 150.03 78.54 149.49 74.35 C 148.82 61.17 148.95 47.89 146.68 34.84 C 145.03 27.04 144.69 18.80 141.01 11.57 C 129.34 12.16 116.64 11.48 106.44 18.20 C 104.43 15.30 102.76 10.77 105.97 8.05 Z" />
<path fill="#3f6af4" d=" M 252.31 7.21 C 260.76 5.91 270.08 6.65 277.25 11.70 C 285.77 17.13 290.80 27.07 291.28 37.03 C 292.33 54.57 282.47 71.50 268.58 81.67 C 265.69 84.20 261.97 82.04 258.96 80.95 C 258.97 80.25 258.98 78.87 258.99 78.18 C 264.65 74.21 270.19 69.74 273.56 63.57 C 278.26 55.62 279.73 46.02 278.74 36.92 C 277.76 29.40 273.98 21.41 266.61 18.34 C 261.16 15.84 254.94 17.19 249.72 19.59 C 238.76 24.61 230.40 35.76 229.97 47.98 C 229.87 59.76 236.30 70.53 244.09 78.94 C 259.97 95.92 281.79 105.69 303.71 112.27 C 312.71 114.36 322.14 114.01 331.09 111.86 C 333.02 111.05 334.18 112.96 335.49 113.99 C 333.37 118.66 328.73 121.11 324.63 123.76 C 321.63 125.87 317.77 124.85 314.43 124.35 C 298.94 121.07 283.97 115.69 269.41 109.53 C 260.42 105.55 251.18 101.69 243.54 95.35 C 233.52 87.24 224.99 76.69 220.88 64.35 C 216.76 52.56 219.97 39.52 225.92 28.96 C 231.64 18.89 240.76 9.90 252.31 7.21 Z" />
<path fill="#000000" d=" M 415.00 41.20 C 415.59 40.84 416.77 40.11 417.36 39.75 C 420.84 41.38 421.78 45.41 421.66 48.93 C 421.97 64.00 422.84 79.09 421.88 94.16 C 421.81 96.66 420.95 99.03 419.88 101.25 C 418.70 101.08 417.53 100.85 416.38 100.57 C 414.69 93.24 415.22 85.66 414.75 78.21 C 414.46 65.87 415.25 53.54 415.00 41.20 Z" />
<path fill="#000000" d=" M 425.19 48.88 C 425.59 45.56 423.64 40.79 427.99 39.59 C 430.12 41.38 431.83 43.78 431.83 46.67 C 432.10 60.59 433.03 74.50 432.53 88.42 C 432.15 92.73 432.37 97.27 430.20 101.18 C 428.92 100.99 427.65 100.80 426.38 100.59 C 424.28 83.43 425.14 66.12 425.19 48.88 Z" />
<path fill="#000000" d=" M 381.50 49.44 C 385.49 46.74 390.59 48.27 394.34 50.64 C 402.41 55.64 407.06 64.54 409.73 73.38 C 411.22 79.01 412.08 84.93 411.26 90.73 C 409.95 90.48 408.64 90.23 407.34 89.98 C 404.49 82.52 398.46 75.51 390.17 74.32 C 385.84 74.54 381.47 75.44 377.63 77.52 C 374.88 78.96 372.55 81.57 372.36 84.79 C 372.50 89.06 376.96 91.14 380.48 92.27 C 390.17 95.22 399.94 90.56 409.70 91.30 C 411.88 90.90 411.90 93.41 412.30 94.81 C 403.16 100.06 392.06 102.90 381.63 100.25 C 376.15 99.04 370.76 95.99 368.16 90.83 C 366.14 86.46 366.25 81.05 368.83 76.92 C 372.31 71.04 379.25 67.80 385.97 67.98 C 390.92 67.79 395.72 69.27 400.31 70.97 C 400.00 64.06 394.90 57.94 388.54 55.58 C 385.08 53.60 382.35 57.95 378.77 57.22 C 378.54 54.42 378.67 50.95 381.50 49.44 Z" />
<path fill="#000000" d=" M 436.12 63.06 C 437.02 57.42 442.60 54.14 447.76 53.06 C 453.44 52.12 460.10 52.27 464.50 56.52 C 467.56 59.25 467.84 63.86 466.87 67.60 C 466.11 69.54 464.12 69.99 462.26 70.00 C 460.94 67.68 461.46 65.21 462.40 62.88 C 459.11 58.48 452.77 58.34 447.97 59.92 C 445.33 60.69 441.78 62.64 442.72 65.96 C 442.99 69.24 446.12 71.18 449.00 71.99 C 457.17 74.36 466.22 73.00 474.01 76.82 C 480.05 79.72 482.28 87.68 479.51 93.58 C 476.47 98.98 470.00 101.53 464.01 101.32 C 456.66 101.25 448.83 101.36 442.17 97.80 C 438.23 95.75 435.58 91.98 434.06 87.90 C 435.98 87.27 438.39 86.20 440.13 87.83 C 444.85 91.70 450.72 94.85 457.01 94.40 C 461.72 94.18 467.05 95.21 471.16 92.30 C 473.50 90.77 473.35 87.65 472.86 85.24 C 470.36 80.75 464.65 80.20 460.07 79.73 C 453.93 78.83 447.26 78.81 441.91 75.26 C 437.89 72.66 436.11 67.68 436.12 63.06 Z" />
<path fill="#000000" d=" M 512.57 56.64 C 518.30 52.99 526.40 52.99 531.83 57.19 C 536.30 60.83 534.82 67.88 531.48 71.75 C 530.64 68.23 530.34 64.04 527.18 61.69 C 522.82 58.34 516.46 60.21 512.85 63.82 C 508.39 68.58 506.91 75.52 507.86 81.85 C 508.33 86.72 511.95 90.95 516.51 92.56 C 522.84 94.89 529.74 94.67 536.37 94.29 C 538.07 94.02 539.70 94.57 541.29 95.12 C 540.85 96.32 541.08 97.97 539.90 98.77 C 536.51 101.16 532.15 100.98 528.20 101.28 C 520.76 101.61 512.38 100.74 506.93 95.08 C 497.12 84.04 499.86 64.35 512.57 56.64 Z" />
<path fill="#000000" d=" M 309.09 91.97 C 302.82 80.94 301.73 65.80 310.00 55.47 C 314.12 57.85 312.38 63.03 311.61 66.73 C 309.65 73.77 310.73 81.42 313.88 87.94 C 315.25 90.40 316.95 93.40 320.10 93.67 C 325.11 92.79 329.60 89.23 331.90 84.75 C 332.86 79.30 332.58 73.69 333.10 68.18 C 334.54 67.56 336.03 67.06 337.56 66.70 C 340.71 74.07 338.36 83.01 343.17 89.78 C 345.24 92.80 349.44 92.86 352.62 91.85 C 356.57 90.43 358.16 85.91 358.04 82.04 C 358.02 75.95 355.49 70.29 352.72 65.00 C 352.51 62.22 356.42 62.54 357.69 64.18 C 361.56 68.20 363.40 73.75 364.36 79.15 C 365.46 85.11 364.62 91.83 360.65 96.61 C 357.08 100.85 350.96 99.49 346.10 99.53 C 341.51 99.31 339.07 95.03 336.44 91.90 C 333.09 96.26 328.83 100.82 322.97 101.17 C 316.81 101.74 312.03 96.79 309.09 91.97 Z" />
<path fill="#000000" d=" M 634.15 57.11 C 639.01 54.62 645.16 56.28 648.65 60.31 C 653.92 66.17 656.28 74.16 656.97 81.86 C 656.77 88.26 658.20 95.56 654.06 101.05 C 652.68 101.21 651.31 101.28 649.93 101.26 C 649.20 95.44 650.47 89.66 650.63 83.86 C 649.82 77.32 648.47 70.23 643.72 65.32 C 641.86 63.40 638.87 63.59 636.57 64.50 C 631.40 66.58 626.87 70.75 625.12 76.12 C 622.92 82.49 629.99 88.50 626.72 94.75 C 625.48 95.66 623.90 95.09 622.51 95.16 C 617.57 87.01 618.34 76.44 612.31 68.83 C 609.92 65.44 604.73 65.01 601.62 67.63 C 597.58 70.71 596.55 76.25 596.86 81.06 C 596.62 87.14 598.93 93.26 597.14 99.26 C 595.06 99.36 592.66 99.39 591.65 97.20 C 589.39 92.53 590.82 87.17 590.23 82.20 C 590.24 74.71 588.31 67.12 590.00 59.71 C 592.26 59.67 594.01 60.87 595.24 62.69 C 599.03 58.02 605.72 58.28 610.95 59.97 C 615.12 61.36 617.69 65.15 620.07 68.60 C 624.21 64.17 628.69 59.86 634.15 57.11 Z" />
<path fill="#000000" d=" M 561.46 57.66 C 566.22 56.64 571.79 55.89 575.99 58.96 C 584.60 64.99 588.57 77.00 585.06 86.94 C 581.86 95.89 572.42 101.69 563.04 101.32 C 555.49 101.52 548.02 96.98 544.99 90.02 C 542.55 84.39 542.25 77.81 544.24 72.00 C 546.96 64.60 553.89 59.34 561.46 57.66 Z" />
<path fill="#ffffff" d=" M 563.32 64.19 C 566.86 63.11 570.11 65.32 573.02 67.02 C 577.08 69.53 580.85 73.93 579.93 79.03 C 578.63 85.36 573.45 90.21 567.90 93.06 C 563.38 95.42 557.70 94.37 553.91 91.10 C 549.07 86.70 547.14 79.04 550.05 73.05 C 552.72 68.15 557.92 65.12 563.32 64.19 Z" />
<path fill="#000000" d=" M 485.95 87.92 C 487.02 84.99 488.57 82.21 490.91 80.11 C 499.06 81.60 501.65 93.46 495.86 98.93 C 494.36 101.09 491.80 101.50 489.36 101.20 C 486.53 97.57 483.80 92.50 485.95 87.92 Z" />
</svg>
