<?xml version="1.0" encoding="UTF-8" standalone="no"?>
<svg
   xmlns:dc="http://purl.org/dc/elements/1.1/"
   xmlns:cc="http://creativecommons.org/ns#"
   xmlns:rdf="http://www.w3.org/1999/02/22-rdf-syntax-ns#"
   xmlns:svg="http://www.w3.org/2000/svg"
   xmlns="http://www.w3.org/2000/svg"
   version="1.1"
   id="svg2"
   viewBox="0 0 140 40"
   height="25px"
   width="80px">
  <defs
     id="defs4" />
  <metadata
     id="metadata7">
    <rdf:RDF>
      <cc:Work
         rdf:about="">
        <dc:format>image/svg+xml</dc:format>
        <dc:type
           rdf:resource="http://purl.org/dc/dcmitype/StillImage" />
        <dc:title></dc:title>
      </cc:Work>
    </rdf:RDF>
  </metadata>
  <g
     id="layer1">
    <flowRoot
       style="fill:black;stroke:none;stroke-opacity:1;stroke-width:1px;stroke-linejoin:miter;stroke-linecap:butt;fill-opacity:1;font-family:sans-serif;font-style:normal;font-weight:normal;font-size:40px;line-height:125%;letter-spacing:0px;word-spacing:0px"
       id="flowRoot4144"
       xml:space="preserve"><flowRegion
         id="flowRegion4146"><rect
           y="118.07649"
           x="194.28572"
           height="97.14286"
           width="128.57143"
           id="rect4148" /></flowRegion><flowPara
         id="flowPara4150"></flowPara></flowRoot>    <g
       id="flowRoot4167"
       style="font-style:normal;font-weight:normal;font-size:40px;line-height:125%;font-family:sans-serif;letter-spacing:0px;word-spacing:0px;fill:#000000;fill-opacity:1;stroke:none;stroke-width:1px;stroke-linecap:butt;stroke-linejoin:miter;stroke-opacity:1"
       transform="translate(2,-6)">
      <path
         id="path4176"
         style="font-style:normal;font-variant:normal;font-weight:normal;font-stretch:normal;font-family:'Oleo Script Swash Caps';-inkscape-font-specification:'Oleo Script Swash Caps';fill:#ffffff;fill-opacity:1"
         d="m 9.4277344,16.511497 q 0,-0.76 -0.2,-1.12 -0.16,-0.36 -0.76,-1.04 l 0.04,-0.28 q 2.1199996,-1.24 5.2799996,-1.24 1.24,0 1.84,0.2 0.2,0.4 0.2,1.68 0,1.24 -1.92,9 0.88,0.36 2,0.36 1.92,0 3.16,-1.32 1.24,-1.32 1.6,-2.84 0.4,-1.56 0.4,-3.28 0,-3.16 -1.72,-4.56 -1.68,-1.44 -5.48,-1.44 -4.9599996,0 -8.2399996,2 -3.28,2 -3.28,4.2 0,1.12 0.84,1.84 0.88,0.68 1.8,0.92 -0.16,1.44 -1,2.96 -1.52,-0.2 -2.88,-1.6 -1.40000003,-1.4 -1.40000003,-3.68 0,-4.08 4.56000003,-6.56 4.56,-2.4800001 10.6399996,-2.4800001 6.08,0 9.2,2.0400001 3.12,2 3.12,6.24 0,5.56 -4.44,8.4 -2.4,1.56 -5.76,1.56 -2.12,0 -3.64,-0.64 -1.68,6.84 -2.04,10.96 -2.3599996,0.68 -5.2399996,0.68 -0.68,0 -1,-0.12 0.2,-2.52 2.24,-10.48 2.08,-7.96 2.08,-10.36 z" />
      <path
         id="path4178"
         style="font-style:normal;font-variant:normal;font-weight:normal;font-stretch:normal;font-family:'Oleo Script Swash Caps';-inkscape-font-specification:'Oleo Script Swash Caps';fill:#ffffff;fill-opacity:1"
         d="m 36.220234,21.991497 q 0,1.68 -1.08,5.8 -1.08,4.08 -1.08,5.36 0,1.24 0.36,1.24 0.24,0 1.84,-0.76 l 0.48,-0.24 0.68,1.4 q -0.36,0.32 -0.96,0.8 -0.6,0.48 -2.24,1.32 -1.64,0.8 -3.04,0.8 -1.4,0 -2.2,-0.84 -0.8,-0.88 -0.8,-2.32 0,-1.48 1,-5.2 1,-3.76 1,-4.88 0,-1.68 -1.04,-3.16 l -0.36,-0.48 0.04,-0.52 q 2.12,-0.6 6.88,-0.6 0.52,0.6 0.52,2.28 z m -4.56,-6.64 q -0.8,-0.8 -0.8,-2.12 0,-1.32 1.08,-2.32 1.12,-1.0000001 2.56,-1.0000001 1.44,0 2.24,0.8000001 0.8,0.8 0.8,2.12 0,1.28 -1.16,2.28 -1.12,1 -2.52,1 -1.4,0 -2.2,-0.76 z" />
      <path
         id="path4180"
         style="font-style:normal;font-variant:normal;font-weight:normal;font-stretch:normal;font-family:'Oleo Script Swash Caps';-inkscape-font-specification:'Oleo Script Swash Caps';fill:#ffffff;fill-opacity:1"
         d="m 47.999609,21.511497 q -1.6,0 -2.56,2.68 -0.96,2.64 -0.96,5.68 0,4.8 2.96,4.8 0.96,0 2.04,-0.44 1.08,-0.48 1.72,-0.92 l 0.6,-0.48 0.92,1.24 q -0.32,0.44 -1.28,1.16 -0.96,0.72 -1.8,1.2 -0.84,0.48 -2.16,0.88 -1.32,0.4 -2.6,0.4 -3.12,0 -4.68,-2.04 -1.56,-2.04 -1.56,-5.48 0,-4.76 2.6,-7.72 2.64,-2.96 6.76,-2.96 2.68,0 4.24,1.24 1.6,1.2 1.6,3 0,1.76 -1.12,3.04 -1,0 -2.32,-0.44 -1.32,-0.44 -2,-1.08 l 0.6,-3.52 q -0.36,-0.24 -1,-0.24 z" />
      <path
         id="path4182"
         style="font-style:normal;font-variant:normal;font-weight:normal;font-stretch:normal;font-family:'Oleo Script Swash Caps';-inkscape-font-specification:'Oleo Script Swash Caps';fill:#ffffff;fill-opacity:1"
         d="m 59.178984,10.831497 q 0,-1.3200001 -0.24,-1.8800001 3.12,-1.08 5.88,-1.08 0.36,0.36 0.36,1.84 0,3.3200001 -2.2,12.7200001 3.56,-2.92 7.04,-2.92 1.56,0 2.64,0.96 1.08,0.96 1.08,2.8 0,3.44 -5.64,5 1.32,4.16 2.32,5.64 0.44,0.64 0.64,0.64 0.44,0 1.84,-0.68 l 0.44,-0.2 0.64,1.36 q -0.96,0.88 -2.68,1.8 -1.68,0.88 -3.08,0.88 -3.12,0 -4.36,-5.68 -0.56,-2.44 -0.68,-4.56 2.56,-0.6 3.8,-1.44 1.28,-0.88 1.28,-2.2 0,-1.36 -1.36,-1.36 -1.36,0 -4.56,2.72 -2,8.44 -2,11.56 -2.2,0.64 -5.72,0.64 -0.04,-0.68 -0.04,-1.2 0,-1.72 2.28,-11.76 2.32,-10.04 2.32,-13.6 z" />
      <path
         id="path4184"
         style="font-style:normal;font-variant:normal;font-weight:normal;font-stretch:normal;font-family:'Oleo Script Swash Caps';-inkscape-font-specification:'Oleo Script Swash Caps';fill:#ffffff;fill-opacity:1"
         d="m 81.771484,16.511497 q 0,-0.76 -0.2,-1.12 -0.16,-0.36 -0.76,-1.04 l 0.04,-0.28 q 2.12,-1.24 5.28,-1.24 1.24,0 1.84,0.2 0.2,0.4 0.2,1.68 0,1.24 -1.92,9 0.88,0.36 2,0.36 1.92,0 3.16,-1.32 1.24,-1.32 1.6,-2.84 0.4,-1.56 0.4,-3.28 0,-3.16 -1.72,-4.56 -1.68,-1.44 -5.48,-1.44 -4.96,0 -8.24,2 -3.28,2 -3.28,4.2 0,1.12 0.84,1.84 0.88,0.68 1.8,0.92 -0.16,1.44 -1,2.96 -1.52,-0.2 -2.88,-1.6 -1.4,-1.4 -1.4,-3.68 0,-4.08 4.56,-6.56 4.56,-2.4800001 10.64,-2.4800001 6.08,0 9.2,2.0400001 3.12,2 3.12,6.24 0,5.56 -4.44,8.4 -2.4,1.56 -5.76,1.56 -2.12,0 -3.64,-0.64 -1.68,6.84 -2.04,10.96 -2.36,0.68 -5.24,0.68 -0.68,0 -1,-0.12 0.2,-2.52 2.24,-10.48 2.08,-7.96 2.08,-10.36 z" />
      <path
         id="path4186"
         style="font-style:normal;font-variant:normal;font-weight:normal;font-stretch:normal;font-family:'Oleo Script Swash Caps';-inkscape-font-specification:'Oleo Script Swash Caps';fill:#ffffff;fill-opacity:1"
         d="m 108.56398,21.991497 q 0,1.68 -1.08,5.8 -1.08,4.08 -1.08,5.36 0,1.24 0.36,1.24 0.24,0 1.84,-0.76 l 0.48,-0.24 0.68,1.4 q -0.36,0.32 -0.96,0.8 -0.6,0.48 -2.24,1.32 -1.64,0.8 -3.04,0.8 -1.4,0 -2.2,-0.84 -0.8,-0.88 -0.8,-2.32 0,-1.48 1,-5.2 1,-3.76 1,-4.88 0,-1.68 -1.04,-3.16 l -0.36,-0.48 0.04,-0.52 q 2.12,-0.6 6.88,-0.6 0.52,0.6 0.52,2.28 z m -4.56,-6.64 q -0.8,-0.8 -0.8,-2.12 0,-1.32 1.08,-2.32 1.12,-1.0000001 2.56,-1.0000001 1.44,0 2.24,0.8000001 0.8,0.8 0.8,2.12 0,1.28 -1.16,2.28 -1.12,1 -2.52,1 -1.4,0 -2.2,-0.76 z" />
      <path
         id="path4188"
         style="font-style:normal;font-variant:normal;font-weight:normal;font-stretch:normal;font-family:'Oleo Script Swash Caps';-inkscape-font-specification:'Oleo Script Swash Caps';fill:#ffffff;fill-opacity:1"
         d="m 115.66336,10.831497 q 0,-1.3200001 -0.24,-1.8800001 3.12,-1.08 5.88,-1.08 0.36,0.36 0.36,1.84 0,3.3200001 -2.2,12.7200001 3.56,-2.92 7.04,-2.92 1.56,0 2.64,0.96 1.08,0.96 1.08,2.8 0,3.44 -5.64,5 1.32,4.16 2.32,5.64 0.44,0.64 0.64,0.64 0.44,0 1.84,-0.68 l 0.44,-0.2 0.64,1.36 q -0.96,0.88 -2.68,1.8 -1.68,0.88 -3.08,0.88 -3.12,0 -4.36,-5.68 -0.56,-2.44 -0.68,-4.56 2.56,-0.6 3.8,-1.44 1.28,-0.88 1.28,-2.2 0,-1.36 -1.36,-1.36 -1.36,0 -4.56,2.72 -2,8.44 -2,11.56 -2.2,0.64 -5.72,0.64 -0.04,-0.68 -0.04,-1.2 0,-1.72 2.28,-11.76 2.32,-10.04 2.32,-13.6 z" />
    </g>
  </g>
</svg>
