<?xml version="1.0" standalone="no"?><!DOCTYPE svg PUBLIC "-//W3C//DTD SVG 1.1//EN" "http://www.w3.org/Graphics/SVG/1.1/DTD/svg11.dtd"><svg t="1612763919084" class="icon" viewBox="0 0 1024 1024" version="1.1" xmlns="http://www.w3.org/2000/svg" p-id="1729" xmlns:xlink="http://www.w3.org/1999/xlink" width="200" height="200"><defs><style type="text/css"></style></defs><path d="M570.53 130.43c-95-7.3-192 29.24-275.72 74.86-17.36 9.46-34.92 19.06-49.39 32.5-11.72 10.89-21.09 24-30.37 37-24.27 34-49 68.92-60.45 109-10 35.09-9.39 72.22-8.28 108.68 1.27 41.16 3.06 82.6 12.39 122.72 18.29 78.68 65.94 149.73 130.23 198.93s144.55 76.66 225.57 80c31.2 1.3 62.7-0.89 92.9-8.78 106.68-27.85 183-122.32 230.88-221.2 20.34-42 37.23-86.66 39.67-133.23 1.52-28.85-2.56-57.71-8.22-86.05-14.93-74.63-42-148.75-92.09-206.28-28.4-32.58-63.37-60.58-102.32-79.79a284.8 284.8 0 0 0-104.8-28.36z" fill="#FFA41F" p-id="1730"></path><path d="M838.29 596c-47.9 98.88-124.2 193.35-230.88 221.2-30.2 7.89-61.7 10.08-92.9 8.78-81-3.37-161.29-30.83-225.57-80S177 625.66 158.71 547c-8.7-37.42-10.85-76-12.12-114.4-1.33 19.87-0.88 40-0.27 59.89 1.27 41.16 3.06 82.6 12.39 122.72 18.29 78.66 65.94 149.71 130.23 198.91s144.55 76.66 225.57 80c31.2 1.3 62.7-0.89 92.9-8.78 106.68-27.85 183-122.32 230.88-221.2 20.34-42 37.23-86.66 39.67-133.23a278.68 278.68 0 0 0-2-48c-5.45 39.35-20.29 77.17-37.67 113.09z" fill="#F47902" p-id="1731"></path><path d="M146.35 493.33c1-17.83 3.34-35.48 8.25-52.65 11.48-40.13 36.18-75 60.45-109 9.28-13 18.65-26.12 30.37-37 14.47-13.44 32-23 49.39-32.49 83.75-45.63 180.76-82.16 275.72-74.87a284.8 284.8 0 0 1 104.8 28.36c38.95 19.16 73.92 47.18 102.32 79.82 50 57.53 77.16 131.65 92.09 206.29 2.92 14.6 5.41 29.36 6.94 44.17 0.58-5 1-9.95 1.28-15 1.52-28.85-2.56-57.71-8.22-86.05-14.93-74.63-42-148.75-92.09-206.28-28.4-32.63-63.37-60.63-102.32-79.84a284.8 284.8 0 0 0-104.8-28.36c-95-7.3-192 29.24-275.72 74.86-17.36 9.46-34.92 19.06-49.39 32.5-11.72 10.88-21.09 24-30.37 37-24.27 34-49 68.92-60.45 109-10 35.09-9.39 72.22-8.28 108.68z" fill="#FFDD92" p-id="1732"></path><path d="M530.76 907c-5.52 0-11.1-0.11-16.77-0.35-85.05-3.54-167.68-32.87-232.65-82.59a374 374 0 0 1-85.2-91.46 353.22 353.22 0 0 1-49.6-114.52c-9.44-40.57-11.4-82.35-12.71-125.16-1.24-40.49-1.44-76.9 8.75-112.51 12.2-42.65 38.82-79.95 62.3-112.86 9.51-13.33 19.34-27.12 32-38.91C252.62 214 271 204 288.83 194.32c47.53-25.9 93.3-45.5 136.06-58.28C476.7 120.56 526 114.48 571.49 118a298.22 298.22 0 0 1 109.35 29.6 328 328 0 0 1 62.38 40.28 12.5 12.5 0 0 1-15.81 19.37 303.63 303.63 0 0 0-57.6-37.25 273.28 273.28 0 0 0-100.24-27.1c-42.39-3.26-88.66 2.49-137.52 17.09-41.1 12.28-85.26 31.22-131.26 56.28-16.45 9-33.45 18.23-46.86 30.68-10.84 10.06-19.92 22.79-28.7 35.1-23.4 32.8-47.6 66.71-58.62 105.23-9.19 32.14-9 66.51-7.79 104.86 1.27 41.5 3.15 81.93 12.07 120.27A328.26 328.26 0 0 0 217 718.84a349.06 349.06 0 0 0 79.53 85.35c60.93 46.63 138.52 74.15 218.49 77.47 32.69 1.36 62.71-1.46 89.23-8.38 47.37-12.37 91.68-39.49 131.68-80.59 34.63-35.59 65.28-80.66 91.1-134 24.59-50.76 36.44-90.37 38.44-128.43 1.58-30.15-3.44-60.17-8-82.95-12.86-64.28-33.34-118.9-60.89-162.33a12.5 12.5 0 1 1 21.11-13.39c29.2 46 50.83 103.51 64.29 170.82 4.85 24.21 10.18 56.23 8.45 89.16-2.18 41.54-14.79 84.11-40.9 138-27 55.72-59.18 103-95.69 140.5-43.22 44.42-91.43 73.81-143.28 87.35-24.25 6.38-51.03 9.58-79.8 9.58z" fill="#4F0F34" p-id="1733"></path><path d="M775.5 248.66q-0.62 0-1.23-0.06a10.13 10.13 0 0 1-1.21-0.19 11.92 11.92 0 0 1-2.34-0.71 12.41 12.41 0 0 1-2.16-1.15c-0.34-0.22-0.67-0.47-1-0.72a13.41 13.41 0 0 1-1.74-1.74c-0.25-0.32-0.5-0.65-0.72-1a12.41 12.41 0 0 1-1.15-2.16 12 12 0 0 1-0.72-2.34 12.615 12.615 0 0 1-0.24-2.44c0-0.41 0-0.82 0.06-1.23s0.1-0.81 0.18-1.21a12.64 12.64 0 0 1 0.71-2.34 13.55 13.55 0 0 1 1.15-2.16c0.23-0.34 0.48-0.67 0.73-1a12.09 12.09 0 0 1 0.83-0.92 11.81 11.81 0 0 1 0.91-0.82 11.45 11.45 0 0 1 1-0.73 12.41 12.41 0 0 1 2.16-1.15 12.64 12.64 0 0 1 2.34-0.71c0.4-0.08 0.81-0.15 1.21-0.19a12.64 12.64 0 0 1 2.46 0c0.4 0 0.81 0.11 1.21 0.19a12.59 12.59 0 0 1 4.5 1.86 10 10 0 0 1 1 0.73 12 12 0 0 1 0.92 0.82c0.28 0.29 0.56 0.6 0.82 0.92a11.86 11.86 0 0 1 0.73 1 12.79 12.79 0 0 1 1.15 2.16 12.64 12.64 0 0 1 0.71 2.34c0.08 0.4 0.15 0.81 0.19 1.21s0.06 0.82 0.06 1.23 0 0.82-0.06 1.23-0.11 0.81-0.19 1.21a12.64 12.64 0 0 1-0.71 2.34 12.41 12.41 0 0 1-1.15 2.16c-0.23 0.34-0.47 0.67-0.73 1s-0.54 0.62-0.82 0.91a12.09 12.09 0 0 1-0.92 0.83 11.76 11.76 0 0 1-1 0.72 12.79 12.79 0 0 1-2.16 1.15 12.13 12.13 0 0 1-2.34 0.71 10.13 10.13 0 0 1-1.21 0.19q-0.61 0.06-1.23 0.06z" fill="#4F0F34" p-id="1734"></path><path d="M610.22 388.77c1-0.16 2.07-0.35 3.1-0.57 11.21-2.36 22.15-8.67 27.28-18.87a28.74 28.74 0 0 0 2.36-19l-50.73-38.53c-11.53-8.77-25.13-20.24-39.14-16.51-19.6 6.58-28.36 33.94-16.22 50.6C541 351.5 547 356.3 548 363.16c1 7.22-3.68 16.17 1.84 21 2.2 1.91 5.33 2.26 8.24 2.52l21 1.89c10.37 0.89 20.92 1.82 31.14 0.2z" fill="#A3331D" p-id="1735"></path><path d="M597.92 402.15c-6.95 0-13.7-0.61-20-1.17l-21-1.89c-3.49-0.31-10-0.89-15.32-5.53-8.62-7.48-7.24-17.74-6.42-23.86a26.62 26.62 0 0 0 0.39-4.86c-0.17-1.26-2.63-4.12-4.43-6.2-1.38-1.6-2.94-3.4-4.38-5.39-8-11-10.13-26-5.62-40.17s15-25.28 28-29.64l0.76-0.23c19-5.07 35.53 7.61 47.6 16.86l2.33 1.78 50.72 38.56a12.46 12.46 0 0 1 4.64 7.24 41.06 41.06 0 0 1-3.39 27.3c-6.41 12.73-19.48 22-35.87 25.49-1.24 0.26-2.49 0.49-3.73 0.68a91.89 91.89 0 0 1-14.28 1.03z m-38.12-27.9l20.4 1.83c9.47 0.85 19.26 1.73 28.08 0.35 0.81-0.12 1.64-0.27 2.45-0.45 8.78-1.85 15.76-6.43 18.69-12.25a16.32 16.32 0 0 0 1.69-6.66l-46.45-35.31c-0.8-0.6-1.6-1.22-2.41-1.84-8.68-6.66-18.5-14.19-25.6-12.63-5.28 2-9.63 6.92-11.69 13.39s-1.35 13.26 2 17.86c0.84 1.15 1.94 2.43 3.1 3.77 4.06 4.7 9.11 10.56 10.29 19.17A42.15 42.15 0 0 1 560 373c-0.09 0.39-0.14 0.81-0.2 1.25z m-3.12-0.38z" fill="#4F0F34" p-id="1736"></path><path d="M484.87 586.88c-3.07-0.42-6.14-1.07-9.15-1.72-8.13-1.76-16.53-3.64-23.18-8.61C443.25 569.61 439 558 435.31 547c-2.22-6.49-3.65-15.31 2.3-18.78 2.12-1.24 4.77-1.41 6.8-2.82 3.34-2.33 4.68-7.59 9.43-7.26 7.52 0.52 9.17 12.09 12.63 17A50.61 50.61 0 0 0 487.12 552c9.5 4.22 22.38 6.67 24.61 16.78 1.7 7.69-5 15.24-12.55 17.46a34.13 34.13 0 0 1-14.31 0.64z" fill="#A3331D" p-id="1737"></path><path d="M491.21 599.85a59.16 59.16 0 0 1-8-0.58c-3.46-0.48-6.75-1.17-10.11-1.89-8.49-1.84-19.06-4.13-28-10.82-12.73-9.5-17.85-24.53-21.58-35.5-7.45-21.86 3-30.78 7.83-33.6a26.21 26.21 0 0 1 5.71-2.39l0.22-0.07 0.36-0.47c2.22-2.84 7.42-9.5 17.1-8.83 12.93 0.89 17.81 12.57 20.44 18.84 0.5 1.19 1.25 3 1.6 3.54a38.28 38.28 0 0 0 15.45 12.54c1.64 0.72 3.53 1.44 5.54 2.2 9.15 3.45 23 8.68 26.21 23.3 3.32 15-8.44 28.41-21.25 32.16a40.47 40.47 0 0 1-11.52 1.57z m-4.64-25.35c3.89 0.53 6.78 0.46 9.1-0.22a6.64 6.64 0 0 0 3.76-2.92c-1.17-1.62-7.46-4-10.53-5.15-2.24-0.85-4.56-1.73-6.85-2.74a63.09 63.09 0 0 1-25.83-21.11 38.6 38.6 0 0 1-3.79-7.32c-0.28 0.22-0.56 0.43-0.87 0.64a22 22 0 0 1-5.57 2.76 24.94 24.94 0 0 0 1.15 4.56c3.48 10.21 6.85 19 12.88 23.53 4.59 3.43 11.58 5 18.35 6.41 3 0.65 5.63 1.21 8.2 1.56z m-43.05-35.26z" fill="#4F0F34" p-id="1738"></path><path d="M413.05 584.53c-1.8-14-30.12 0.77-38.13 3.26-7.72 2.4-16.41 2.94-23.66 6.74-9.43 4.93-9.25 12.58-2 16.22 8.13 4 27.38 1.4 36.35 0 7.86-1.28 26-13.54 27.28-22.13a15.19 15.19 0 0 0 0.16-4.09z" fill="#FFA41F" p-id="1739"></path><path d="M362.76 625.39c-10.41 0-15.71-1.8-19-3.46-7.58-3.78-12.15-10.56-12.23-18.14-0.08-8.24 5-15.65 14-20.34 6.11-3.2 12.47-4.55 18.09-5.74 2.76-0.59 5.37-1.15 7.66-1.85 1-0.31 3.12-1.18 5.21-2 15.66-6.33 29.49-11.06 40-4.9a18.54 18.54 0 0 1 9 14 27.71 27.71 0 0 1-0.16 7.52c-2.38 15.69-26.17 30.73-37.64 32.59a158.49 158.49 0 0 1-24.93 2.32z m27-29.95l-4 1.58c-1.55 0.63-2.92 1.18-4.17 1.66l2-0.32a23.12 23.12 0 0 0 6.17-2.92z" fill="#4F0F34" p-id="1740"></path><path d="M649.28 681.57c0.06-0.07 0.12-0.13 0.17-0.2 5-5.91 4.15-14.51 3.9-22.2-0.51-15.18 2.09-31.07-3.8-45.08-3.5-8.35-12.79-15.06-21.46-17.19-21.46-5.27-8.62 16.11-8.93 26.89-0.27 9.75-6.39 18.22-7.45 27.87a34.78 34.78 0 0 0 7.45 25.4c7.27 8.94 22.57 13.16 30.12 4.51z" fill="#A3331D" p-id="1741"></path><path d="M638.09 698.81h-0.59a38 38 0 0 1-28-13.89 47.14 47.14 0 0 1-10.17-34.63c0.67-6 2.65-11.32 4.39-16 1.56-4.16 2.91-7.75 3-10.88a45.23 45.23 0 0 0-1.4-7.24c-2-8.21-4.71-19.46 3.19-27.34 5.16-5.14 12.77-6.52 22.61-4.1 13.15 3.23 25.21 13.07 30 24.49 5.33 12.71 5 26.08 4.8 37.88-0.08 4.06-0.16 7.9 0 11.62 0 0.62 0 1.25 0.07 1.88 0.32 8.3 0.77 19.66-6.88 28.78l-0.31 0.35a26.81 26.81 0 0 1-20.71 9.08z m11.19-17.24z m-19.59-70.74c1 4.36 2.09 8.85 2 13.31-0.21 7.3-2.53 13.49-4.58 19-1.35 3.6-2.62 7-3 9.94a22.27 22.27 0 0 0 4.75 16.15 13.28 13.28 0 0 0 9.08 4.62 2.85 2.85 0 0 0 1.9-0.45v-0.05c1.42-1.69 1.19-7.48 1-11.71 0-0.68 0-1.35-0.08-2-0.14-4.41-0.05-8.77 0-13 0.21-10.22 0.42-19.87-2.86-27.68-1.12-2.96-4.44-6.11-8.21-8.13z" fill="#4F0F34" p-id="1742"></path><path d="M825 490c-1.54-15.18-8.7-30.76-8.13-46.31 0.2-5.48 1.36-11 0.53-16.41-1.54-10.08-10.71-18.47-20.92-19.17s-20.48 6.39-23.36 16.16C770.4 439.52 770 453.16 781 464c3.1 3 7 5.22 10 8.3 6.06 6.1 8.18 14.93 12.16 22.54s11.89 14.8 20.23 12.68A41.64 41.64 0 0 0 825 490z" fill="#A3331D" p-id="1743"></path><path d="M820.68 520.39c-9.81 0-21.22-5.71-28.54-19.72-1.5-2.87-2.69-5.69-3.85-8.42-2-4.64-3.67-8.66-6.1-11.11a38.19 38.19 0 0 0-3.75-3.06 57.64 57.64 0 0 1-6.17-5.12c-15.39-15.13-14.43-34.21-11.45-50.88a13 13 0 0 1 0.32-1.37c4.58-15.38 20.15-26.16 36.19-25.06s30 13.88 32.43 29.75a55.6 55.6 0 0 1 0 14.1c-0.15 1.66-0.3 3.23-0.35 4.66-0.27 7.28 1.74 15.23 3.87 23.64a145.35 145.35 0 0 1 4.21 20.94 54.1 54.1 0 0 1-2.11 22.73 12.5 12.5 0 0 1-8.8 8.2 23.79 23.79 0 0 1-5.9 0.72z m2.77-12.83z m-38.17-80.24c-2.58 14.92-1.41 22 4.51 27.81a39.9 39.9 0 0 0 3.67 3 57.36 57.36 0 0 1 6.47 5.43c5.46 5.5 8.4 12 10.88 17.8-0.55-2.41-1.17-4.87-1.81-7.4-2.47-9.74-5-19.82-4.62-30.68 0.07-2.15 0.26-4.15 0.44-6.09a36.21 36.21 0 0 0 0.23-8 11 11 0 0 0-9.42-8.59 11.11 11.11 0 0 0-10.35 6.72z" fill="#4F0F34" p-id="1744"></path><path d="M536.91 250.92a62 62 0 0 0 30.3-22.25c6.58-9.32-20.31-19.33-25.61-21-24.18-7.71-9.1 10-21.54 21.91-2.46 2.34-5.58 3.92-8 6.32a16 16 0 0 0-2.86 18 61.12 61.12 0 0 0 27.71-2.98z" fill="#A3331D" p-id="1745"></path><path d="M516.67 266.84a69.82 69.82 0 0 1-9-0.58 12.47 12.47 0 0 1-9.53-6.74 28.33 28.33 0 0 1 5.14-32.46 42 42 0 0 1 5.75-4.67 27.85 27.85 0 0 0 2.45-1.87c1.5-1.43 1.79-3.14 2.19-7.3 0.44-4.61 1.18-12.33 8.26-17s15.92-2.9 23.52-0.47c8.84 2.82 29.9 10.82 34.41 24.24a17.62 17.62 0 0 1-2.38 15.9A75 75 0 0 1 541 262.75a74.94 74.94 0 0 1-24.33 4.09zM538 219.63a31.21 31.21 0 0 1-9.35 19c-0.93 0.87-1.86 1.65-2.75 2.34a50.41 50.41 0 0 0 6.91-1.85A50.58 50.58 0 0 0 553 226.33a80.71 80.71 0 0 0-15-6.7z" fill="#4F0F34" p-id="1746"></path><path d="M270.25 338.31c-1.73 1.29-3 3.25-4.5 4.81a21.58 21.58 0 0 1-8.21 4.74c-13.06 4.61-29.35 2.15-38-8.65s-5.48-29.84 7.46-34.79c10.88-4.16 26.09 1 32.83-8.42 3.42-4.79 2.71-11.31 4.58-16.88s9.76-10.08 13.32-5.39c9.46 4.44 15 3 24.49 7.43-1.7-0.8 14.12-11.84 18.19-11.6 10 0.58 10 5.54 9.49 13.89-1 16.51-14.42 45.64-28.18 55.66-3 2.16-6.39 4.13-10.07 4-7.25-0.32-13.85-8.71-20.33-5.46a7.28 7.28 0 0 0-1.07 0.66z" fill="#A3331D" p-id="1747"></path><path d="M244.53 362.6c-13.71 0-26.71-5.55-34.73-15.6-6.93-8.68-9.32-21.1-6.23-32.41 2.82-10.34 9.74-18.31 19-21.84 6.13-2.35 12.35-2.61 17.83-2.84 3-0.12 8.16-0.33 9.31-1.18a24.84 24.84 0 0 0 1-4.79 50.08 50.08 0 0 1 1.9-8.8c2.65-7.87 10.09-14.3 18.1-15.61a17.55 17.55 0 0 1 14.14 3.64 42.3 42.3 0 0 0 7.62 2c2 0.39 4.21 0.83 6.69 1.52a98.22 98.22 0 0 1 4.12-2.81c9.84-6.35 14.57-7 17.9-6.82 2.69 0.15 10.89 0.63 16.49 6.95s5.12 14.36 4.75 20.21c-1.24 19.73-16 52.41-33.29 65-4 2.9-10.16 6.73-18 6.36-5.87-0.26-10.66-2.82-14.16-4.68l-0.93-0.49c-0.42 0.48-0.9 1-1.42 1.53a33.31 33.31 0 0 1-12.91 7.72 51.68 51.68 0 0 1-17.18 2.94z m25.72-24.29z m5.35-51.9c-0.06 0.39-0.12 0.8-0.18 1.22-0.65 4.31-1.53 10.23-5.38 15.63-7.67 10.76-19.77 11.27-28.6 11.63-3.75 0.16-7.62 0.32-9.95 1.21s-3.47 3.85-3.8 5.06c-1 3.65-0.33 7.77 1.65 10.25 4.67 5.85 15 7.86 24 4.67a9.72 9.72 0 0 0 3.5-1.78c0.21-0.2 0.6-0.67 0.94-1.09a28.87 28.87 0 0 1 4.94-4.91 19.67 19.67 0 0 1 3-1.85c9.53-4.78 18.28-0.12 23 2.38 1 0.54 2.48 1.32 3.35 1.65a15.66 15.66 0 0 0 2.33-1.48c10-7.26 21.1-30.94 22.86-44.37-1.6 1-3.19 2.11-4.3 3a12.5 12.5 0 0 1-16 4.86 36.4 36.4 0 0 0-9.36-2.76 65.85 65.85 0 0 1-12-3.32z m16.07 44.22z m30.81-48.85z m-54.67-0.49z m39.8-11.43z m0 0z" fill="#4F0F34" p-id="1748"></path><path d="M627.86 791.6a9.27 9.27 0 0 0 2.63-0.92c4.29-2.29 5.84-7.53 7-12.24 4.95-20.26 9.54-43.09-1.51-60.8-3.48-5.57-17.1-14.52-24.08-9.74-9.34 6.4 6.55 15.81 6.78 24.3s-3.11 17.28-10.3 22.23c-3.68 2.54-8.16 4.28-10.61 8-3.32 5-1.62 12.09 2.33 16.64s9.61 7.2 15.1 9.7c3.97 1.82 8.55 3.62 12.66 2.83z" fill="#A3331D" p-id="1749"></path><path d="M625.79 804.29c-5.77 0-11.14-2-15.78-4.14-6-2.76-13.58-6.19-19.38-12.9-8.09-9.36-9.45-22.4-3.31-31.71 3.35-5.06 8-7.82 11.42-9.83 1-0.57 1.85-1.1 2.54-1.57 3.52-2.43 4.83-7 4.89-10.82a41.63 41.63 0 0 0-2.7-4c-3.46-4.79-8.2-11.35-6.76-19.63a18.24 18.24 0 0 1 8.12-12.09c3.36-2.3 9.09-4.68 17.34-3 9.29 1.94 19.78 9 24.41 16.4 14.55 23.32 7.34 52.78 3 70.38-1.21 4.94-3.72 15.21-13.24 20.29a21.9 21.9 0 0 1-6.15 2.18 24.14 24.14 0 0 1-4.4 0.44z m-0.29-25z m-16.94-10.28a4.92 4.92 0 0 0 1 1.85c2.23 2.57 6.6 4.57 10.84 6.5a36.8 36.8 0 0 0 4 1.59c0.26-0.76 0.59-1.87 1-3.52 2.78-11.4 5.27-23.05 4.89-33.41a36.63 36.63 0 0 1-14.78 22.67c-1.4 1-2.77 1.78-4 2.49-0.95 0.58-2.22 1.33-2.95 1.87z m-0.47 0.4z" fill="#4F0F34" p-id="1750"></path><path d="M687.66 804.72c-2.49 0.43-5 0.81-7.45 1.18-5.82 0.86-13.4 0.81-15.65-4.61-1.76-4.24 1.19-8.86 4.05-12.48 9.08-11.49 17.84-33.59 36-26.34 19 7.54 22 24.34 3.56 35.41-6.17 3.75-13.3 5.56-20.51 6.84z" fill="#A3331D" p-id="1751"></path><path d="M675.44 818.75c-7.75 0-18.07-2.16-22.42-12.67-4.82-11.61 3.16-21.7 5.78-25 1.51-1.91 3.18-4.43 4.94-7.1 4.13-6.24 8.81-13.32 15.21-18.45 9.12-7.31 19.61-8.92 30.34-4.65 14.07 5.6 22.7 15.65 23.67 27.58 0.95 11.59-5.72 22.59-18.3 30.15-8.44 5.08-17.71 7.18-24.83 8.43-2.55 0.45-5 0.83-7.78 1.24a46.2 46.2 0 0 1-6.61 0.47z m22.35-45.22a5.13 5.13 0 0 0-3.21 1.49c-3.34 2.68-6.72 7.78-10 12.72-1.19 1.8-2.4 3.63-3.65 5.4 1.58-0.24 3.07-0.48 4.53-0.73 5.31-0.94 11.4-2.3 16.3-5.24s6.36-5.58 6.26-6.7c-0.1-1.28-2.36-4.14-8-6.39a6.33 6.33 0 0 0-2.23-0.55z" fill="#4F0F34" p-id="1752"></path><path d="M570.12 806.26c-8.69 14.56-14.93 20.5-18.74 37-0.67 2.88-1.25 6-0.21 8.75 1.67 4.47 7 6.54 11.77 6.67 13.44 0.34 25.18-10.78 29.15-23.56 3-9.67 5.57-22.76 0-32-6.18-10.37-20.23-10.63-22 3.18" fill="#A3331D" p-id="1753"></path><path d="M563.52 871.19h-0.9c-10.82-0.28-19.91-6.08-23.16-14.79-2.44-6.52-1-12.88-0.26-15.94 3.34-14.46 8.42-22.25 14.29-31.26 1.53-2.34 3.09-4.75 4.75-7.44 2.17-9.52 8.67-16.38 17.48-18.21 10.27-2.14 21.18 3.14 27.14 13.14 6.31 10.59 6.7 24.38 1.17 42.16-5.87 18.87-22.81 32.34-40.51 32.34z m-0.42-22.57z m0.43-2.43c7.52 0 14.32-7.45 16.6-14.77 3.75-12.07 2.91-18.1 1.72-20.94a13.07 13.07 0 0 1-1 2.18c-2.34 3.92-4.51 7.24-6.42 10.18-5.33 8.16-8.54 13.09-10.88 23.24z m19.25-39.47z m-12.66-0.47zM247 670.67a12.44 12.44 0 0 1-9-3.85c-29.21-30.47-39.62-107.25-39.62-169a12.5 12.5 0 0 1 25 0c0 70.33 13.13 131.27 32.66 151.65a12.5 12.5 0 0 1-9 21.15zM458.94 743c-0.41 0-0.83 0-1.23-0.07s-0.82-0.1-1.22-0.18a13.12 13.12 0 0 1-2.34-0.71 12.32 12.32 0 0 1-2.15-1.15 12 12 0 0 1-1-0.73c-0.32-0.26-0.62-0.54-0.91-0.82a12.09 12.09 0 0 1-0.83-0.92 11.86 11.86 0 0 1-0.73-1 13.55 13.55 0 0 1-1.15-2.16 12.88 12.88 0 0 1-0.71-2.34 12.615 12.615 0 0 1-0.24-2.44c0-0.41 0-0.83 0.06-1.23s0.1-0.82 0.18-1.22a12.78 12.78 0 0 1 0.71-2.33 13.13 13.13 0 0 1 1.15-2.16c0.23-0.34 0.47-0.67 0.73-1a11.94 11.94 0 0 1 0.83-0.91 12.49 12.49 0 0 1 17.67 0 11.94 11.94 0 0 1 0.83 0.91c0.26 0.32 0.5 0.65 0.73 1a13.13 13.13 0 0 1 1.15 2.16 12.78 12.78 0 0 1 0.71 2.33c0.08 0.4 0.14 0.81 0.18 1.22s0.07 0.82 0.07 1.23 0 0.82-0.07 1.23-0.1 0.81-0.18 1.21a12.88 12.88 0 0 1-0.71 2.34 13.55 13.55 0 0 1-1.15 2.16 11.86 11.86 0 0 1-0.73 1 12.09 12.09 0 0 1-0.83 0.92c-0.29 0.28-0.59 0.56-0.91 0.82a12 12 0 0 1-1 0.73 12.32 12.32 0 0 1-2.15 1.15 12.88 12.88 0 0 1-2.34 0.71c-0.4 0.08-0.81 0.14-1.22 0.18s-0.8 0.07-1.2 0.07zM510.71 733.91q-0.61 0-1.23-0.06c-0.4 0-0.81-0.1-1.21-0.18a12.91 12.91 0 0 1-2.34-0.72 12.32 12.32 0 0 1-2.15-1.15 10.46 10.46 0 0 1-1-0.72 10.3 10.3 0 0 1-0.91-0.83 11.94 11.94 0 0 1-0.83-0.91c-0.26-0.32-0.5-0.65-0.73-1a12.41 12.41 0 0 1-1.15-2.16 12.64 12.64 0 0 1-0.71-2.34c-0.08-0.4-0.15-0.81-0.19-1.21s-0.06-0.82-0.06-1.23 0-0.82 0.06-1.23 0.11-0.81 0.19-1.21a12.64 12.64 0 0 1 0.71-2.34 12.79 12.79 0 0 1 1.15-2.16 11.86 11.86 0 0 1 0.73-1 11.92 11.92 0 0 1 1.74-1.74 10.54 10.54 0 0 1 1-0.73 12.32 12.32 0 0 1 2.15-1.15 12.88 12.88 0 0 1 2.34-0.71 10.13 10.13 0 0 1 1.21-0.19 12.64 12.64 0 0 1 2.46 0 9.83 9.83 0 0 1 1.21 0.19 12.64 12.64 0 0 1 2.34 0.71 12.41 12.41 0 0 1 2.16 1.15c0.34 0.23 0.67 0.47 1 0.73s0.62 0.54 0.91 0.82a12.09 12.09 0 0 1 0.83 0.92c0.25 0.31 0.5 0.64 0.73 1a12.74 12.74 0 0 1 1.14 2.16A12 12 0 0 1 523 719a12.507 12.507 0 0 1 0.24 2.44 12.5 12.5 0 0 1-12.5 12.5zM491 791.68q-0.62 0-1.23-0.06c-0.4 0-0.81-0.1-1.21-0.18a13.48 13.48 0 0 1-2.34-0.72 12.41 12.41 0 0 1-2.16-1.15c-0.34-0.23-0.67-0.47-1-0.73s-0.62-0.53-0.91-0.82a12 12 0 0 1-0.82-0.92 10 10 0 0 1-0.73-1 12.79 12.79 0 0 1-1.15-2.16 12.64 12.64 0 0 1-0.71-2.34 10.13 10.13 0 0 1-0.19-1.21q-0.06-0.61-0.06-1.23t0.06-1.23a10.13 10.13 0 0 1 0.19-1.21 12.64 12.64 0 0 1 0.71-2.34 12.41 12.41 0 0 1 1.15-2.16 11.45 11.45 0 0 1 0.73-1c0.26-0.31 0.53-0.62 0.82-0.91s0.6-0.56 0.91-0.82a11.45 11.45 0 0 1 1-0.73 12.41 12.41 0 0 1 2.16-1.15 12 12 0 0 1 2.34-0.72c0.4-0.08 0.81-0.14 1.21-0.18a12.64 12.64 0 0 1 2.46 0c0.4 0 0.81 0.1 1.21 0.18a12 12 0 0 1 2.34 0.72 12.41 12.41 0 0 1 2.16 1.15 11.45 11.45 0 0 1 1 0.73 11.81 11.81 0 0 1 0.91 0.82c0.29 0.29 0.57 0.6 0.83 0.91s0.5 0.65 0.72 1a12.41 12.41 0 0 1 1.15 2.16 12 12 0 0 1 0.72 2.34c0.08 0.4 0.14 0.81 0.18 1.21s0.06 0.82 0.06 1.23 0 0.82-0.06 1.23-0.1 0.81-0.18 1.21a12 12 0 0 1-0.72 2.34 12.79 12.79 0 0 1-1.15 2.16 11.76 11.76 0 0 1-0.72 1 12.09 12.09 0 0 1-0.83 0.92 11.81 11.81 0 0 1-0.91 0.82c-0.32 0.26-0.65 0.5-1 0.73a12.41 12.41 0 0 1-2.16 1.15 13.48 13.48 0 0 1-2.34 0.72 12.615 12.615 0 0 1-2.44 0.24z" fill="#4F0F34" p-id="1754"></path></svg>