<svg width="132" height="32" viewBox="0 0 132 32" fill="none" xmlns="http://www.w3.org/2000/svg" class="wsc-svg-logo-pdfelement-zh-header">
<g filter="url(#pdfelement-zh-header-filter0_i)">
<g clip-path="url(#pdfelement-zh-header-clip0)">
<rect width="32" height="32" fill="url(#pdfelement-zh-header-paint0_linear)"/>
<path d="M15.9738 24.4821H8V16.485L17.1429 16.4821V16.5252C16.4727 16.6857 15.9746 17.2901 15.9746 18.0118L15.9738 24.4821Z" fill="white"/>
<path d="M8 15.625H24V7.625H8V15.625Z" fill="white"/>
</g>
</g>
<path d="M38.992 11.792V9.952H53.008V11.792H45.056C45.0347 12.88 45.0027 13.7013 44.96 14.256H51.504L51.296 20.416C51.232 22.336 50.32 23.296 48.56 23.296C47.92 23.2853 47.3173 23.248 46.752 23.184C46.7413 22.4053 46.6133 21.744 46.368 21.2C47.1147 21.3067 47.7067 21.36 48.144 21.36C48.9013 21.3707 49.2853 20.9653 49.296 20.144L49.44 16.064H44.784C44.4107 19.456 43.0613 22.0213 40.736 23.76C40.1813 23.216 39.5467 22.8 38.832 22.512C41.3173 20.9547 42.6827 18.352 42.928 14.704C42.9813 13.776 43.008 12.8053 43.008 11.792H38.992ZM54.896 17.68V15.872H63.072C64.3947 13.9413 65.4933 11.92 66.368 9.808L68.224 10.832C67.3813 12.5493 66.4 14.2293 65.28 15.872H69.104V17.68H54.896ZM56.752 23.712C56.2827 23.2 55.7227 22.7627 55.072 22.4C56.832 21.2373 58.2987 19.8773 59.472 18.32L61.152 19.344C59.8827 21.0293 58.416 22.4853 56.752 23.712ZM67.584 23.68C66.1653 22.176 64.6187 20.752 62.944 19.408L64.512 18.272C66.1013 19.4773 67.52 20.72 68.768 22L67.584 23.68ZM58.496 15.328C57.6427 13.856 56.688 12.432 55.632 11.056L57.504 10.336C58.3893 11.4773 59.232 12.752 60.032 14.16L58.496 15.328ZM61.664 14.16C61.12 12.5067 60.5013 10.976 59.808 9.568L61.808 9.2C62.3413 10.3733 62.8853 11.76 63.44 13.36L61.664 14.16ZM73.808 18.144V22H71.28V10.8H75.232C78.0587 10.8 79.472 11.9893 79.472 14.368C79.472 15.488 79.0667 16.4 78.256 17.104C77.4453 17.7973 76.3627 18.144 75.008 18.144H73.808ZM73.808 12.736V16.224H74.8C76.144 16.224 76.816 15.6373 76.816 14.464C76.816 13.312 76.144 12.736 74.8 12.736H73.808ZM81.1081 22V10.8H85.0761C89.0548 10.8 91.0441 12.6187 91.0441 16.256C91.0441 18.0053 90.5001 19.4027 89.4121 20.448C88.3348 21.4827 86.8895 22 85.0761 22H81.1081ZM83.6361 12.848V19.952H84.8841C85.9721 19.952 86.8255 19.6267 87.4441 18.976C88.0735 18.3147 88.3881 17.4187 88.3881 16.288C88.3881 15.2213 88.0788 14.384 87.4601 13.776C86.8415 13.1573 85.9775 12.848 84.8681 12.848H83.6361ZM99.385 12.848H95.433V15.6H99.065V17.648H95.433V22H92.905V10.8H99.385V12.848ZM102.178 12.528V10.832H106.306C106.466 10.224 106.61 9.58933 106.738 8.928L108.77 9.296C108.716 9.54133 108.626 9.92533 108.498 10.448C108.455 10.6187 108.423 10.7467 108.402 10.832H113.794V12.528H107.938C107.799 13.008 107.655 13.4773 107.506 13.936H114.93V15.664H106.93C106.844 15.9093 106.711 16.2507 106.53 16.688C106.476 16.8373 106.434 16.944 106.402 17.008H113.058V18.448C112.492 19.408 111.735 20.4267 110.786 21.504C111.276 21.696 111.751 21.888 112.21 22.08L111.746 23.936C108.962 22.784 106.322 21.8613 103.826 21.168L104.722 19.52C106.13 19.8933 107.506 20.3147 108.85 20.784C109.554 20.0373 110.124 19.344 110.562 18.704H104.114V17.248C104.316 16.832 104.535 16.304 104.77 15.664H100.946V13.936H105.378C105.538 13.4773 105.687 13.008 105.826 12.528H102.178ZM119.954 14.352V12.944H127.874V14.352H124.866C124.535 14.6827 124.135 15.008 123.666 15.328C124.146 15.7227 124.572 16.2133 124.946 16.8C126.428 16.128 127.639 15.3653 128.578 14.512L130.098 15.68C129.319 16.2453 128.466 16.7733 127.538 17.264C128.284 19.056 129.586 20.3947 131.442 21.28C130.812 21.6 130.263 22.0373 129.794 22.592C128.162 21.5893 126.951 20.0427 126.162 17.952L125.586 18.192C125.82 18.9387 125.938 19.7387 125.938 20.592C125.959 22.6507 125.042 23.6693 123.186 23.648C122.834 23.648 122.46 23.6213 122.066 23.568C122.055 23.0133 121.922 22.4533 121.666 21.888C122.178 21.9947 122.588 22.048 122.898 22.048C123.762 22.0693 124.183 21.5733 124.161 20.56C124.161 20.336 124.14 20.032 124.098 19.648C122.658 21.0667 120.7 22.2347 118.226 23.152C117.959 22.672 117.538 22.2347 116.962 21.84C119.607 21.0507 121.852 19.8347 123.698 18.192C123.623 17.9787 123.527 17.7867 123.41 17.616C121.874 18.832 120.055 19.7547 117.954 20.384C117.676 19.904 117.308 19.472 116.85 19.088C119.047 18.5973 120.988 17.76 122.674 16.576C122.546 16.4373 122.412 16.304 122.274 16.176C120.93 16.8693 119.559 17.392 118.162 17.744C117.842 17.1893 117.458 16.7253 117.01 16.352C119.314 15.9253 121.148 15.2587 122.514 14.352H119.954ZM117.362 13.984V10.432H122.898C122.78 10.24 122.588 9.94133 122.322 9.536C122.258 9.44 122.21 9.36533 122.178 9.312L124.385 8.88C124.78 9.49867 125.09 10.016 125.314 10.432H130.53V13.808H128.69V12H119.186V13.984H117.362Z" fill="black"/>
<defs>
<filter id="pdfelement-zh-header-filter0_i" x="0" y="0" width="32" height="32" filterUnits="userSpaceOnUse" color-interpolation-filters="sRGB">
<feFlood flood-opacity="0" result="BackgroundImageFix"/>
<feBlend mode="normal" in="SourceGraphic" in2="BackgroundImageFix" result="shape"/>
<feColorMatrix in="SourceAlpha" type="matrix" values="0 0 0 0 0 0 0 0 0 0 0 0 0 0 0 0 0 0 127 0" result="hardAlpha"/>
<feOffset/>
<feGaussianBlur stdDeviation="0.5"/>
<feComposite in2="hardAlpha" operator="arithmetic" k2="-1" k3="1"/>
<feColorMatrix type="matrix" values="0 0 0 0 0 0 0 0 0 0 0 0 0 0 0 0 0 0 0.24 0"/>
<feBlend mode="darken" in2="shape" result="effect1_innerShadow"/>
</filter>
<linearGradient id="pdfelement-zh-header-paint0_linear" x1="16" y1="0" x2="16" y2="32" gradientUnits="userSpaceOnUse">
<stop stop-color="#414C9A"/>
<stop offset="1" stop-color="#364295"/>
</linearGradient>
<clipPath id="pdfelement-zh-header-clip0">
<rect width="32" height="32" rx="7.30097" fill="white"/>
</clipPath>
</defs>
</svg>
