<?xml version="1.0" standalone="no"?><!DOCTYPE svg PUBLIC "-//W3C//DTD SVG 1.1//EN" "http://www.w3.org/Graphics/SVG/1.1/DTD/svg11.dtd"><svg t="1612751578493" class="icon" viewBox="0 0 4672 1024" version="1.1" xmlns="http://www.w3.org/2000/svg" p-id="2636" xmlns:xlink="http://www.w3.org/1999/xlink" width="912.5" height="200"><defs><style type="text/css">html, * {  }
</style></defs><path d="M454.4 502.4H1024V0L454.4 80v422.4z" fill="#66CC00" p-id="2637"></path><path d="M1913.6 720h-3.2L1769.6 204.8h-70.4l-147.2 512h-3.2L1408 204.8h-76.8l179.2 614.4h83.2l137.6-486.4 137.6 486.4h86.4l172.8-614.4h-76.8l-137.6 515.2z" fill="#FF6633" p-id="2638"></path><path d="M0 880l438.4 60.8V521.6H0v358.4z" fill="#0099FF" p-id="2639"></path><path d="M2188.8 380.8h70.4v438.4h-70.4z" fill="#66CC00" p-id="2640"></path><path d="M0 502.4h438.4V83.2L0 144v358.4z" fill="#FF6633" p-id="2641"></path><path d="M454.4 944L1024 1024V521.6H454.4v422.4z" fill="#FFCC00" p-id="2642"></path><path d="M4208 736h-3.2l-99.2-355.2h-64L3932.8 736h-3.2l-96-355.2h-73.6l131.2 438.4h70.4l105.6-342.4h3.2l99.2 342.4h73.6l131.2-438.4h-73.6L4208 736z" fill="#66CC00" p-id="2643"></path><path d="M4643.2 624a265.28 265.28 0 0 0-86.4-54.4 285.44 285.44 0 0 1-67.2-38.4 75.84 75.84 0 0 1-16-44.8 56 56 0 0 1 22.4-44.8 128 128 0 0 1 57.6-16 160 160 0 0 1 99.2 32v-70.4a230.72 230.72 0 0 0-92.8-19.2 156.48 156.48 0 0 0-112 35.2 107.84 107.84 0 0 0-44.8 89.6 130.24 130.24 0 0 0 25.6 76.8 209.28 209.28 0 0 0 83.2 54.4 327.68 327.68 0 0 1 73.6 41.6 65.92 65.92 0 0 1 16 41.6c0 41.6-28.8 60.8-83.2 60.8a188.8 188.8 0 0 1-115.2-41.6v76.8a208.64 208.64 0 0 0 108.8 25.6 164.48 164.48 0 0 0 115.2-35.2 118.72 118.72 0 0 0 44.8-92.8 128 128 0 0 0-28.8-76.8z" fill="#0099FF" p-id="2644"></path><path d="M2224 192h-1.92a43.84 43.84 0 0 0-42.88 44.8 41.28 41.28 0 0 0 12.8 32 48.64 48.64 0 0 0 64 0 37.12 37.12 0 0 0 12.8-32 49.28 49.28 0 0 0-12.8-32 37.12 37.12 0 0 0-32-12.8z" fill="#FFCC00" p-id="2645"></path><path d="M3523.2 371.2a212.16 212.16 0 0 0-163.2 64 244.48 244.48 0 0 0-60.8 172.8 232.64 232.64 0 0 0 57.6 163.2 206.4 206.4 0 0 0 156.8 60.8 201.28 201.28 0 0 0 160-64 242.56 242.56 0 0 0 60.8-169.6 224 224 0 0 0-57.6-166.4 195.52 195.52 0 0 0-153.6-60.8z m102.4 352A124.16 124.16 0 0 1 3520 768a150.72 150.72 0 0 1-105.6-44.8 192 192 0 0 1-38.4-124.8 184.32 184.32 0 0 1 38.4-128 141.12 141.12 0 0 1 108.8-44.8 128 128 0 0 1 105.6 44.8 204.16 204.16 0 0 1 35.2 128 212.16 212.16 0 0 1-38.4 124.8z" fill="#FF6633" p-id="2646"></path><path d="M2579.2 371.2a152.32 152.32 0 0 0-144 83.2H2432v-73.6h-70.4v435.2H2432v-249.6a161.6 161.6 0 0 1 35.2-99.2 113.92 113.92 0 0 1 86.4-38.4c67.2 0 102.4 48 102.4 140.8v249.6h70.4v-265.6a201.6 201.6 0 0 0-38.4-134.4 128 128 0 0 0-108.8-48z" fill="#0099FF" p-id="2647"></path><path d="M3142.4 438.4h-3.2a143.36 143.36 0 0 0-131.2-70.4 184 184 0 0 0-147.2 67.2 268.16 268.16 0 0 0-54.4 176 237.76 237.76 0 0 0 48 160 218.56 218.56 0 0 0 41.6 35.2 180.16 180.16 0 0 0 243.2-60.8h3.2v73.6h70.4V169.6h-70.4z m0 182.4a192 192 0 0 1-38.4 112 139.2 139.2 0 0 1-96 41.6 120.32 120.32 0 0 1-96-44.8 173.12 173.12 0 0 1-35.2-118.4 211.52 211.52 0 0 1 38.4-131.2 130.56 130.56 0 0 1 102.4-48h9.28a120.32 120.32 0 0 1 115.52 124.8z" fill="#FFCC00" p-id="2648"></path></svg>